<svg width="24" height="24" viewBox="0 0 24 24" fill="none" xmlns="http://www.w3.org/2000/svg">
<path d="M19.3999 22.3333V14.3333M15.3999 18.3333H23.3999" stroke="currentColor" stroke-linecap="round" stroke-linejoin="round"/>
<path d="M16.4 3.52279C18.0299 4.34577 19.15 6.05469 19.15 8.02941C19.15 10.0041 18.0299 11.7131 16.4 12.536M1 22C3.14114 19.2311 6.0481 17.5294 9.25 17.5294C10.5601 17.5294 11.8209 17.8143 13 18.3407M14.2 8.02941C14.2 10.8071 11.9838 13.0588 9.25 13.0588C6.51619 13.0588 4.3 10.8071 4.3 8.02941C4.3 5.25175 6.51619 3 9.25 3C11.9838 3 14.2 5.25175 14.2 8.02941Z" stroke="currentColor" stroke-linecap="round" stroke-linejoin="round"/>
</svg>
