<svg width="24" height="24" viewBox="0 0 24 24" fill="none" xmlns="http://www.w3.org/2000/svg">
<path d="M1.37056 12.316C1.17613 11.1008 2.11481 10 3.34544 10H20.6546C21.8852 10 22.8239 11.1008 22.6294 12.316L21.2694 20.816C21.1142 21.7862 20.2772 22.5 19.2946 22.5H4.70544C3.72285 22.5 2.8858 21.7862 2.73056 20.816L1.37056 12.316Z" stroke="#121212" stroke-linecap="round" stroke-linejoin="round"/>
<path d="M21 9.5V6.5C21 5.39543 20.1046 4.5 19 4.5H11.7208C11.2903 4.5 10.9082 4.22457 10.7721 3.81623L10.4558 2.86754C10.1836 2.05086 9.41934 1.5 8.55848 1.5H5C3.89543 1.5 3 2.39543 3 3.5V9.5" stroke="#121212" stroke-linecap="round" stroke-linejoin="round"/>
</svg>
