<svg xmlns="http://www.w3.org/2000/svg" width="24" height="24" viewBox="0 0 24 24" fill="none">
  <path d="M15.676 3.87879C14.8275 4.84848 13.4941 5.69697 12.1608 5.57576C11.9184 4.12121 12.6457 2.66667 13.3729 1.81818C14.2214 0.727273 15.676 0 16.8881 0C17.0093 1.33333 16.5245 2.78788 15.676 3.87879ZM16.8881 5.81818C17.6154 5.81818 19.7972 6.0606 21.2517 8.24242C21.1305 8.36364 18.7063 9.81818 18.7063 12.8485C18.7063 16.4848 21.8578 17.697 21.8578 17.697C21.8578 17.8182 21.3729 19.3939 20.282 21.0909C19.3123 22.5455 18.2214 24 16.6457 24C15.0699 24 14.5851 23.0303 12.7669 23.0303C10.9487 23.0303 10.3426 24 8.88809 24C7.31233 24 6.10021 22.4242 5.13051 20.9697C3.0699 17.9394 1.49415 12.4848 3.67597 8.84848C4.64566 7.0303 6.58506 5.81818 8.52445 5.81818C10.1002 5.81818 11.5548 6.90909 12.4032 6.90909C13.2517 6.90909 14.9487 5.69697 16.8881 5.81818Z" fill="black"/>
</svg>