<svg width="24" height="24" viewBox="0 0 24 24" fill="none" xmlns="http://www.w3.org/2000/svg">
<path d="M12.1111 22L11.9999 21.8332C11.2281 20.6756 10.8422 20.0967 10.3323 19.6776C9.88096 19.3066 9.36085 19.0282 8.80179 18.8584C8.17028 18.6667 7.47457 18.6667 6.08313 18.6667H4.55556C3.31099 18.6667 2.68871 18.6667 2.21336 18.4244C1.79521 18.2114 1.45526 17.8714 1.24221 17.4533C1 16.978 1 16.3557 1 15.1111V5.55556C1 4.31099 1 3.68871 1.24221 3.21336C1.45526 2.79521 1.79521 2.45526 2.21336 2.24221C2.68871 2 3.31099 2 4.55556 2H5C7.48912 2 8.73368 2 9.6844 2.48441C10.5207 2.91052 11.2006 3.59043 11.6267 4.42671C12.1111 5.37742 12.1111 6.62199 12.1111 9.11111M12.1111 22V9.11111M12.1111 22L12.2223 21.8332C12.9941 20.6756 13.38 20.0967 13.8899 19.6776C14.3412 19.3066 14.8613 19.0282 15.4204 18.8584C16.0519 18.6667 16.7477 18.6667 18.1391 18.6667H19.6667C20.9112 18.6667 21.5336 18.6667 22.0089 18.4244C22.427 18.2114 22.767 17.8714 22.98 17.4533C23.2222 16.978 23.2222 16.3557 23.2222 15.1111V5.55556C23.2222 4.31099 23.2222 3.68871 22.98 3.21336C22.767 2.79521 22.427 2.45526 22.0089 2.24221C21.5336 2 20.9112 2 19.6667 2H19.2222C16.7331 2 15.4886 2 14.5378 2.48441C13.7016 2.91052 13.0217 3.59043 12.5956 4.42671C12.1111 5.37742 12.1111 6.62199 12.1111 9.11111" stroke="currentColor" stroke-linecap="round" stroke-linejoin="round"/>
</svg>
