<svg width="24" height="24" viewBox="0 0 24 24" fill="none" xmlns="http://www.w3.org/2000/svg">
<path d="M17 8C15.4497 8 13.8993 8 12.0352 8C11.4694 8 11.0162 8.469 11.0357 9.03446L11.5 22.5H15L16.8048 14.3786C16.8512 14.1697 17.1488 14.1697 17.1952 14.3786L19 22.5H22.5L22.9643 9.03446C22.9838 8.469 22.5306 8 21.9648 8C20.1007 8 18.5503 8 17 8ZM17 8V11.5" stroke="currentColor" stroke-linecap="round"/>
<path d="M19 5.5L16.3 1.9C16.1111 1.64819 15.8148 1.5 15.5 1.5H13.677C13.2681 1.5 12.9052 1.7517 12.7104 2.11121C12.2509 2.95911 11.4483 4 10.5 4C9.55167 4 8.74906 2.95911 8.2896 2.11121C8.09479 1.7517 7.73187 1.5 7.32297 1.5H5.44536C5.16188 1.5 4.89171 1.62032 4.70207 1.83104L1.13468 5.7948C0.778887 6.19013 0.794788 6.79479 1.17087 7.17087L2.79289 8.79289C3.18342 9.18342 3.81658 9.18342 4.20711 8.79289L4.25 8.75L5 8M5 8V6.5M5 8V16C5 16.5523 5.44772 17 6 17H9" stroke="currentColor" stroke-linecap="round"/>
</svg>
