<svg width="24" height="24" viewBox="0 0 24 24" fill="none" xmlns="http://www.w3.org/2000/svg">
<path d="M21.3421 6.72964L11.9474 12M11.9474 12L2.5526 6.72964M11.9474 12V22.6026M14.1579 21.9206L12.8062 22.6789C12.4927 22.8547 12.336 22.9426 12.1701 22.9771C12.0231 23.0076 11.8717 23.0076 11.7248 22.9771C11.5588 22.9426 11.402 22.8547 11.0886 22.6789L2.9096 18.0906C2.57856 17.9049 2.41301 17.812 2.29249 17.6799C2.18586 17.5631 2.10517 17.4246 2.05579 17.2737C2 17.1032 2 16.912 2 16.5296V7.47038C2 7.08797 2 6.89676 2.05579 6.72623C2.10517 6.57536 2.18586 6.43688 2.29249 6.32004C2.41301 6.18796 2.57855 6.0951 2.9096 5.90939L11.0886 1.32112C11.402 1.14528 11.5588 1.05735 11.7248 1.02288C11.8717 0.992374 12.0231 0.992374 12.1701 1.02288C12.336 1.05735 12.4927 1.14528 12.8062 1.32112L20.9851 5.90939C21.3162 6.0951 21.4817 6.18796 21.6023 6.32004C21.7088 6.43688 21.7896 6.57536 21.8389 6.72623C21.8947 6.89676 21.8947 7.08797 21.8947 7.47038V12.558M6.97368 3.62949L16.9211 9.20982M16.3684 18.6964L18.5789 20.9285L23 16.4643" stroke="currentColor" stroke-linecap="round" stroke-linejoin="round"/>
</svg>
