<svg width="24" height="24" viewBox="0 0 24 24" fill="none" xmlns="http://www.w3.org/2000/svg">
<path d="M13.0083 23.0181L15.8886 22.1951C16.0265 22.1558 16.0954 22.136 16.1597 22.1065C16.2168 22.0803 16.2712 22.0483 16.3218 22.0112C16.3788 21.9693 16.4295 21.9186 16.531 21.8171L22.5274 15.8207C23.1686 15.1796 23.1686 14.14 22.5274 13.4989C21.8863 12.8578 20.8469 12.8578 20.2057 13.4989L14.2093 19.4953C14.1078 19.5968 14.0571 19.6476 14.0152 19.7046C13.978 19.7552 13.9461 19.8095 13.9199 19.8666C13.8903 19.931 13.8706 19.9999 13.8312 20.1379L13.0083 23.0181Z" stroke="currentColor" stroke-linecap="round" stroke-linejoin="round"/>
<path d="M1 22C3.27091 19.0854 6.35404 17.2941 9.75 17.2941C10.5179 17.2941 11.2698 17.3857 12 17.5612M15 7.29412C15 10.218 12.6495 12.5882 9.75 12.5882C6.85051 12.5882 4.5 10.218 4.5 7.29412C4.5 4.37026 6.85051 2 9.75 2C12.6495 2 15 4.37026 15 7.29412Z" stroke="currentColor" stroke-linecap="round" stroke-linejoin="round"/>
</svg>
