<svg width="24" height="24" viewBox="0 0 24 24" fill="none" xmlns="http://www.w3.org/2000/svg">
<g clip-path="url(#clip0_3315_24736)">
<path d="M10.8403 3.31938H6.24817C4.41114 3.31938 3.49262 3.31938 2.79097 3.67689C2.17378 3.99136 1.67198 4.49316 1.35751 5.11035C1 5.812 1 6.73052 1 8.56754V17.7518C1 19.5888 1 20.5073 1.35751 21.2091C1.67198 21.8262 2.17378 22.328 2.79097 22.6425C3.49262 23 4.41114 23 6.24817 23H15.4325C17.2695 23 18.188 23 18.8897 22.6425C19.5069 22.328 20.0087 21.8262 20.3231 21.2091C20.6806 20.5073 20.6806 19.5888 20.6806 17.7518V13.1597M7.56018 16.4398H9.39108C9.92593 16.4398 10.1934 16.4398 10.4451 16.3793C10.6681 16.3258 10.8814 16.2374 11.0771 16.1176C11.2978 15.9823 11.4869 15.7932 11.8651 15.415L22.3207 4.95943C23.2264 4.05366 23.2264 2.58511 22.3207 1.67933C21.4149 0.773562 19.9463 0.773551 19.0406 1.67933L8.58495 12.1349C8.20675 12.5131 8.01766 12.7022 7.88242 12.9229C7.76253 13.1186 7.67417 13.3318 7.6206 13.555C7.56018 13.8066 7.56018 14.0741 7.56018 14.609V16.4398Z" stroke="currentColor" stroke-linecap="round" stroke-linejoin="round"/>
</g>
<defs>
<clipPath id="clip0_3315_24736">
<rect width="24" height="24" fill="white"/>
</clipPath>
</defs>
</svg>
