<svg width="24" height="24" viewBox="0 0 24 24" fill="none" xmlns="http://www.w3.org/2000/svg">
<path d="M2 23H12M10.8889 5.67724C11.5991 5.49626 12.3438 5.4 13.1111 5.4C18.0203 5.4 22 9.33989 22 14.2C22 17.8931 19.702 21.0549 16.4444 22.3604M4.77778 13.1H9.22222C9.73851 13.1 9.99667 13.1 10.2113 13.1422C11.0929 13.3158 11.782 13.998 11.9573 14.8708C12 15.0833 12 15.3388 12 15.85C12 16.3612 12 16.6167 11.9573 16.8292C11.782 17.702 11.0929 18.3842 10.2113 18.5578C9.99667 18.6 9.73851 18.6 9.22222 18.6H4.77778C4.26149 18.6 4.00336 18.6 3.78869 18.5578C2.90716 18.3842 2.21804 17.702 2.0427 16.8292C2 16.6167 2 16.3612 2 15.85C2 15.3388 2 15.0833 2.0427 14.8708C2.21804 13.998 2.90716 13.3158 3.78869 13.1422C4.00336 13.1 4.26149 13.1 4.77778 13.1ZM3.11111 4.85V13.1H10.8889V4.85C10.8889 2.7237 9.14778 1 7 1C4.85222 1 3.11111 2.7237 3.11111 4.85Z" stroke="currentColor" stroke-linecap="round" stroke-linejoin="round"/>
</svg>
