<svg width="24" height="24" viewBox="0 0 24 24" fill="none" xmlns="http://www.w3.org/2000/svg">
<path d="M1 6.375L9.98139 12.8048C10.7087 13.3256 11.0724 13.5859 11.4679 13.6867C11.8173 13.7758 12.1827 13.7758 12.5321 13.6867C12.9276 13.5859 13.2913 13.3256 14.0186 12.8048L23 6.375M6.28 21H17.72C19.5682 21 20.4922 21 21.1982 20.6321C21.8191 20.3086 22.3239 19.7923 22.6403 19.1572C23 18.4352 23 17.4902 23 15.6V8.4C23 6.50982 23 5.56473 22.6403 4.84278C22.3239 4.20773 21.8191 3.69143 21.1982 3.36785C20.4922 3 19.5682 3 17.72 3H6.28C4.43182 3 3.50774 3 2.80183 3.36785C2.18089 3.69143 1.67606 4.20773 1.35968 4.84278C1 5.56473 1 6.50982 1 8.4V15.6C1 17.4902 1 18.4352 1.35968 19.1572C1.67606 19.7923 2.18089 20.3086 2.80183 20.6321C3.50774 21 4.43182 21 6.28 21Z" stroke="currentColor" stroke-linecap="round" stroke-linejoin="round"/>
</svg>
