<svg width="24" height="24" viewBox="0 0 24 24" fill="none" xmlns="http://www.w3.org/2000/svg">
<path d="M10.5948 4.3248C11.0491 4.25803 11.5175 4.22222 12 4.22222C17.7044 4.22222 21.4476 9.2276 22.7051 11.2076C22.8573 11.4472 22.9334 11.567 22.976 11.7519C23.0081 11.8907 23.0079 12.1097 22.976 12.2484C22.9333 12.4332 22.8568 12.5539 22.7035 12.7951C22.3683 13.3223 21.8576 14.0634 21.1808 14.8672M6.10442 6.12782C3.68849 7.75744 2.04835 10.0216 1.29596 11.2059C1.14306 11.4466 1.06662 11.5669 1.02401 11.7517C0.992008 11.8904 0.991997 12.1093 1.02398 12.2482C1.06657 12.433 1.14267 12.5528 1.29486 12.7924C2.55241 14.7724 6.2956 19.7778 12 19.7778C14.3001 19.7778 16.2813 18.964 17.9093 17.8629M1.94328 2L22.0567 22M9.62961 9.64298C9.02297 10.2462 8.64776 11.0796 8.64776 12C8.64776 13.841 10.1486 15.3333 12 15.3333C12.9256 15.3333 13.7637 14.9602 14.3703 14.357" stroke="currentColor" stroke-linecap="round" stroke-linejoin="round"/>
</svg>
