<svg width="24" height="24" viewBox="0 0 24 24" fill="none" xmlns="http://www.w3.org/2000/svg">
<path d="M1.29534 12.8151C1.14317 12.5686 1.06708 12.4454 1.02448 12.2553C0.99249 12.1126 0.99249 11.8874 1.02448 11.7447C1.06708 11.5546 1.14317 11.4314 1.29534 11.1849C2.55289 9.14839 6.29609 4 12.0005 4C17.7049 4 21.4481 9.14839 22.7057 11.1849C22.8579 11.4314 22.9339 11.5546 22.9765 11.7447C23.0085 11.8874 23.0085 12.1126 22.9765 12.2553C22.9339 12.4454 22.8579 12.5686 22.7057 12.8151C21.4481 14.8517 17.7049 20 12.0005 20C6.29609 20 2.55289 14.8517 1.29534 12.8151Z" stroke="currentColor" stroke-linecap="round" stroke-linejoin="round"/>
<path d="M12.0005 15C13.6574 15 15.0005 13.6569 15.0005 12C15.0005 10.3431 13.6574 9 12.0005 9C10.3436 9 9.00049 10.3431 9.00049 12C9.00049 13.6569 10.3436 15 12.0005 15Z" stroke="currentColor" stroke-linecap="round" stroke-linejoin="round"/>
</svg>
