<svg width="24" height="24" viewBox="0 0 24 24" fill="none" xmlns="http://www.w3.org/2000/svg">
<path d="M5.85 21H8.6M17.5 8.625H17.511M9.6 5.25H4.52C3.28789 5.25 2.67182 5.25 2.20122 5.49524C1.78726 5.71095 1.4507 6.05515 1.23979 6.47852C1 6.95982 1 7.58989 1 8.85V12.9C1 14.1601 1 14.7902 1.23979 15.2715C1.4507 15.6948 1.78726 16.0391 2.20122 16.2547C2.67182 16.5 3.28789 16.5 4.52 16.5H9.6M15.52 21H19.48C20.7121 21 21.3282 21 21.7988 20.7547C22.2127 20.5391 22.5493 20.1948 22.7602 19.7715C23 19.2902 23 18.6601 23 17.4V6.6C23 5.33989 23 4.70982 22.7602 4.22852C22.5493 3.80515 22.2127 3.46095 21.7988 3.24524C21.3282 3 20.7121 3 19.48 3H15.52C14.2879 3 13.6718 3 13.2012 3.24524C12.7873 3.46095 12.4507 3.80515 12.2398 4.22852C12 4.70982 12 5.33988 12 6.6V17.4C12 18.6601 12 19.2902 12.2398 19.7715C12.4507 20.1948 12.7873 20.5391 13.2012 20.7547C13.6718 21 14.2879 21 15.52 21ZM18.6 15.375C18.6 15.9963 18.1075 16.5 17.5 16.5C16.8925 16.5 16.4 15.9963 16.4 15.375C16.4 14.7537 16.8925 14.25 17.5 14.25C18.1075 14.25 18.6 14.7537 18.6 15.375Z" stroke="currentColor" stroke-linecap="round" stroke-linejoin="round"/>
</svg>
