<svg width="24" height="24" viewBox="0 0 24 24" fill="none" xmlns="http://www.w3.org/2000/svg">
<path d="M5.25452 10.8571H9.75152M7.50302 8.57143V13.1429M15.3728 12H15.384M18.7455 9.71429H18.7568M10.2562 4H13.7437C16.6948 4 18.1704 4 19.3285 4.56849C20.3481 5.06903 21.1954 5.87096 21.7592 6.86925C22.3996 8.00309 22.5047 9.49921 22.7149 12.4914L22.9915 16.428C23.1272 18.3582 21.6234 20 19.7197 20C18.7462 20 17.8231 19.5605 17.1999 18.8002L16.7781 18.2857C16.3924 17.8151 16.1993 17.5798 15.9798 17.3896C15.5193 16.9911 14.9619 16.7256 14.3659 16.6213C14.0816 16.5714 13.7803 16.5714 13.1776 16.5714H10.8225C10.2198 16.5714 9.91848 16.5714 9.63419 16.6213C9.03818 16.7256 8.48076 16.9911 8.0203 17.3896C7.80065 17.5798 7.60775 17.8151 7.22195 18.2857L6.80018 18.8002C6.17698 19.5605 5.25379 20 4.28031 20C2.37671 20 0.872876 18.3582 1.00851 16.428L1.28512 12.4914C1.49536 9.49921 1.60049 8.00309 2.24082 6.86925C2.80461 5.87096 3.65183 5.06903 4.67155 4.56849C5.82971 4 7.30523 4 10.2562 4Z" stroke="currentColor" stroke-linecap="round" stroke-linejoin="round"/>
</svg>
