<svg xmlns="http://www.w3.org/2000/svg" width="24" height="24" viewBox="0 0 24 24" fill="none">
  <g clip-path="url(#clip0_3940_9929)">
    <path d="M24.27 12.2729C24.27 11.422 24.1936 10.6038 24.0518 9.81836H12.75V14.4656H19.2082C18.9245 15.9602 18.0736 17.2256 16.7973 18.0765V21.0984H20.6918C22.9609 19.0038 24.27 15.9275 24.27 12.2729Z" fill="#4285F4"/>
    <path d="M12.7498 24.0001C15.9898 24.0001 18.7062 22.931 20.6917 21.0983L16.7971 18.0765C15.728 18.7965 14.3644 19.2328 12.7498 19.2328C9.62984 19.2328 6.97893 17.1274 6.02984 14.291H2.03711V17.3892C4.01165 21.3056 8.05893 24.0001 12.7498 24.0001Z" fill="#34A853"/>
    <path d="M6.03 14.2803C5.79 13.5603 5.64818 12.7966 5.64818 12.0003C5.64818 11.2039 5.79 10.4403 6.03 9.72025V6.62207H2.03727C1.21909 8.23662 0.75 10.0584 0.75 12.0003C0.75 13.9421 1.21909 15.7639 2.03727 17.3784L5.14636 14.9566L6.03 14.2803Z" fill="#FBBC05"/>
    <path d="M12.7498 4.77818C14.5171 4.77818 16.088 5.38909 17.3426 6.56727L20.7789 3.13091C18.6953 1.18909 15.9898 0 12.7498 0C8.05893 0 4.01165 2.69455 2.03711 6.62182L6.02984 9.72C6.97893 6.88364 9.62984 4.77818 12.7498 4.77818Z" fill="#EA4335"/>
  </g>
  <defs>
    <clipPath id="clip0_3940_9929">
      <rect width="24" height="24" fill="white"/>
    </clipPath>
  </defs>
</svg>