<svg width="24" height="24" viewBox="0 0 24 24" fill="none" xmlns="http://www.w3.org/2000/svg">
<path d="M16.9 22.5H6.0866C5.37981 22.5 5.02642 22.5 4.86278 22.3602C4.72079 22.239 4.64544 22.057 4.66009 21.8709C4.67697 21.6564 4.92686 21.4065 5.42664 20.9067L15.3467 10.9866C15.8087 10.5246 16.0398 10.2935 16.3062 10.2071C16.5404 10.1309 16.7929 10.1309 17.0272 10.2071C17.2935 10.2935 17.5246 10.5246 17.9866 10.9866L22.5 15.5V16.9M16.9 22.5C18.8602 22.5 19.8402 22.5 20.589 22.1185C21.2476 21.783 21.783 21.2476 22.1185 20.589C22.5 19.8402 22.5 18.8602 22.5 16.9M16.9 22.5H7.1C5.13981 22.5 4.15972 22.5 3.41103 22.1185C2.75246 21.783 2.21703 21.2476 1.88148 20.589C1.5 19.8402 1.5 18.8602 1.5 16.9V7.1C1.5 5.13981 1.5 4.15972 1.88148 3.41103C2.21703 2.75246 2.75246 2.21703 3.41103 1.88148C4.15972 1.5 5.13981 1.5 7.1 1.5H16.9C18.8602 1.5 19.8402 1.5 20.589 1.88148C21.2476 2.21703 21.783 2.75246 22.1185 3.41103C22.5 4.15972 22.5 5.13981 22.5 7.1V16.9M10.25 7.91667C10.25 9.20533 9.20533 10.25 7.91667 10.25C6.628 10.25 5.58333 9.20533 5.58333 7.91667C5.58333 6.628 6.628 5.58333 7.91667 5.58333C9.20533 5.58333 10.25 6.628 10.25 7.91667Z" stroke="currentColor" stroke-linecap="round" stroke-linejoin="round"/>
</svg>
