<svg width="24" height="24" viewBox="0 0 24 24" fill="none" xmlns="http://www.w3.org/2000/svg">
<path d="M6.85396 2C5.34739 2 3.84088 2.59857 2.7041 3.80537C0.4305 6.2189 0.433432 10.0864 2.7041 12.5015L11.3827 21.7339C11.4617 21.818 11.5567 21.8849 11.662 21.9307C11.7672 21.9764 11.8805 22 11.9951 22C12.1096 22 12.2229 21.9764 12.3281 21.9307C12.4334 21.8849 12.5284 21.818 12.6074 21.7339C15.5025 18.6606 18.3997 15.5838 21.2948 12.5104C23.5684 10.0969 23.5684 6.22788 21.2948 3.8143C19.0213 1.40074 15.2687 1.40069 12.9951 3.8143L11.9995 4.85999L11.0039 3.80537C9.86705 2.59858 8.36054 2 6.85396 2Z" stroke="currentColor"/>
</svg>
