<svg width="24" height="24" viewBox="0 0 24 24" fill="none" xmlns="http://www.w3.org/2000/svg">
<g clip-path="url(#clip0_115_1998)">
<path d="M9.7875 13.1074C10.2625 13.7431 10.8686 14.2691 11.5647 14.6499C12.2607 15.0306 13.0305 15.2569 13.8215 15.3136C14.6127 15.3703 15.4068 15.256 16.1498 14.9785C16.893 14.7011 17.5678 14.2668 18.1286 13.7054L21.4473 10.3833C22.4549 9.33901 23.0123 7.94041 22.9998 6.48868C22.9872 5.03696 22.4054 3.64825 21.3799 2.62168C20.3543 1.59512 18.9671 1.01282 17.5168 1.00021C16.0665 0.987586 14.6694 1.54567 13.6262 2.55424L11.7234 4.44783M14.2125 10.8927C13.7373 10.2568 13.1312 9.73083 12.4352 9.35018C11.7391 8.96951 10.9695 8.74314 10.1783 8.68643C9.38726 8.62971 8.59321 8.74397 7.85008 9.02146C7.10695 9.29895 6.43213 9.73318 5.8714 10.2947L2.55268 13.6168C1.54512 14.661 0.987598 16.0596 1.00021 17.5114C1.01281 18.9631 1.59452 20.3518 2.62005 21.3784C3.64558 22.4049 5.03288 22.9872 6.48314 22.9998C7.9334 23.0124 9.3306 22.4544 10.3738 21.4458L12.2655 19.5522" stroke="currentColor" stroke-linecap="round" stroke-linejoin="round"/>
</g>
<defs>
<clipPath id="clip0_115_1998">
<rect width="24" height="24" fill="white"/>
</clipPath>
</defs>
</svg>
