<svg width="16" height="16" viewBox="0 0 16 16" fill="none" xmlns="http://www.w3.org/2000/svg">
<path d="M3.68359 15.7861H0.313477L0.313477 5.12012H3.68359L3.68359 15.7861ZM11.9531 4.97754C13.1829 4.97754 14.166 5.37636 14.8994 6.17383C15.6337 6.97119 15.9999 8.06574 16 9.45898V15.5977H12.7998V9.8916C12.7997 9.18904 12.6176 8.64259 12.2539 8.25391C11.8902 7.86533 11.3999 7.66992 10.7861 7.66992C10.1724 7.66994 9.68206 7.86431 9.31836 8.25391C8.95469 8.64259 8.77253 9.18904 8.77246 9.8916V15.5977H5.55371L5.55371 5.08984H8.77246V6.4834C9.0983 6.01909 9.53793 5.65287 10.0898 5.38281C10.6419 5.11268 11.2625 4.97754 11.9531 4.97754ZM2.00879 0C2.59974 0 3.06379 0.174567 3.4375 0.522461C3.812 0.870282 3.99801 1.30787 3.99805 1.83301C3.99805 2.35824 3.81107 2.77617 3.4375 3.12402C3.0628 3.47192 2.58679 3.64648 2.00879 3.64648C1.43103 3.64642 0.936136 3.47173 0.561523 3.12402C0.186821 2.77613 0 2.34538 0 1.83301C3.91746e-05 1.3207 0.187857 0.871315 0.561523 0.522461C0.936139 0.174729 1.41806 5.90679e-05 2.00879 0Z" fill="currentColor"/>
</svg>
