<svg width="24" height="24" viewBox="0 0 24 24" fill="none" xmlns="http://www.w3.org/2000/svg">
<g clip-path="url(#clip0_126_3284)">
<path d="M8.33333 19.3908V5.00232C8.33333 4.40731 8.33333 4.10981 8.4404 3.86851C8.53478 3.65583 8.68676 3.47446 8.87877 3.34537C9.0966 3.19893 9.38686 3.15002 9.96744 3.05221L20.723 1.23995C21.5063 1.10794 21.898 1.04195 22.2034 1.15658C22.4713 1.25717 22.6958 1.44948 22.8379 1.70008C23 1.98566 23 2.38713 23 3.19005V16.9195M8.33333 19.3908C8.33333 21.438 6.69171 23.0977 4.66667 23.0977C2.64163 23.0977 1 21.438 1 19.3908C1 17.3435 2.64163 15.6839 4.66667 15.6839C6.69171 15.6839 8.33333 17.3435 8.33333 19.3908ZM23 16.9195C23 18.9667 21.3584 20.6264 19.3333 20.6264C17.3082 20.6264 15.6667 18.9667 15.6667 16.9195C15.6667 14.8722 17.3082 13.2126 19.3333 13.2126C21.3584 13.2126 23 14.8722 23 16.9195Z" stroke="currentColor" stroke-linecap="round" stroke-linejoin="round"/>
</g>
<defs>
<clipPath id="clip0_126_3284">
<rect width="24" height="24" fill="white"/>
</clipPath>
</defs>
</svg>
