<svg width="24" height="24" viewBox="0 0 24 24" fill="none" xmlns="http://www.w3.org/2000/svg">
<path d="M10.8333 2.66666H7.1C5.13981 2.66666 4.15972 2.66666 3.41103 3.04814C2.75246 3.3837 2.21703 3.91913 1.88148 4.5777C1.5 5.32638 1.5 6.30648 1.5 8.26666V16.9C1.5 18.8602 1.5 19.8402 1.88148 20.589C2.21703 21.2476 2.75246 21.783 3.41103 22.1185C4.15972 22.5 5.13981 22.5 7.1 22.5H15.7333C17.6936 22.5 18.6736 22.5 19.4223 22.1185C20.0809 21.783 20.6163 21.2476 20.9518 20.589C21.3333 19.8402 21.3333 18.8602 21.3333 16.9V13.1667M13.1667 17.8333H6.16667M15.5 13.1667H6.16667M21.4748 2.52512C22.8417 3.89196 22.8417 6.10804 21.4748 7.47487C20.108 8.8417 17.892 8.8417 16.5251 7.47487C15.1583 6.10804 15.1583 3.89196 16.5251 2.52512C17.892 1.15829 20.108 1.15829 21.4748 2.52512Z" stroke="currentColor" stroke-linecap="round" stroke-linejoin="round"/>
</svg>
