<svg width="24" height="24" viewBox="0 0 24 24" fill="none" xmlns="http://www.w3.org/2000/svg">
<path d="M11.0343 2.19178H7.22057C5.21818 2.19178 4.21698 2.19178 3.45218 2.58147C2.77943 2.92425 2.23247 3.47121 1.88969 4.14396C1.5 4.90877 1.5 5.90996 1.5 7.91235V14.1096C1.5 15.218 1.5 15.7722 1.62182 16.2268C1.95243 17.4606 2.91616 18.4244 4.14998 18.755C4.60465 18.8768 5.15882 18.8768 6.26714 18.8768V21.6602C6.26714 22.2953 6.26714 22.6128 6.39732 22.7758C6.51053 22.9176 6.6822 23.0002 6.86368 23C7.07235 22.9998 7.32029 22.8014 7.81618 22.4047L10.6591 20.1303C11.2399 19.6657 11.5303 19.4335 11.8536 19.2683C12.1405 19.1217 12.4458 19.0145 12.7614 18.9498C13.1172 18.8768 13.489 18.8768 14.2327 18.8768H16.0398C18.0422 18.8768 19.0433 18.8768 19.8082 18.4871C20.481 18.1443 21.0279 17.5974 21.3706 16.9246C21.7604 16.1597 21.7604 15.1586 21.7604 13.1562V12.9179M21.9049 2.0472C23.3012 3.44346 23.3012 5.70725 21.9049 7.10351C20.5086 8.49977 18.2449 8.49977 16.8486 7.10351C15.4524 5.70725 15.4524 3.44346 16.8486 2.0472C18.2449 0.650935 20.5086 0.650935 21.9049 2.0472Z" stroke="currentColor" stroke-linecap="round" stroke-linejoin="round"/>
</svg>
