<svg width="24" height="24" viewBox="0 0 24 24" fill="none" xmlns="http://www.w3.org/2000/svg">
<path d="M23 10.75V7.6C23 6.33989 23 5.70982 22.7602 5.22852C22.5493 4.80515 22.2127 4.46095 21.7988 4.24524C21.3282 4 20.7121 4 19.48 4H4.52C3.28789 4 2.67182 4 2.20122 4.24524C1.78726 4.46095 1.4507 4.80515 1.23979 5.22852C1 5.70982 1 6.33989 1 7.6V11.65C1 12.9101 1 13.5402 1.23979 14.0215C1.4507 14.4448 1.78726 14.7891 2.20122 15.0047C2.67182 15.25 3.28789 15.25 4.52 15.25H10.9M12 9.625H12.0055M17.5 9.625H17.5055M6.5 9.625H6.5055M19.975 17.5V15.5312C19.975 14.4439 19.1132 13.5625 18.05 13.5625C16.9869 13.5625 16.125 14.4439 16.125 15.5312V17.5M12.275 9.625C12.275 9.78036 12.1519 9.90625 12 9.90625C11.8481 9.90625 11.725 9.78036 11.725 9.625C11.725 9.46967 11.8481 9.34375 12 9.34375C12.1519 9.34375 12.275 9.46967 12.275 9.625ZM17.775 9.625C17.775 9.78036 17.6519 9.90625 17.5 9.90625C17.3481 9.90625 17.225 9.78036 17.225 9.625C17.225 9.46967 17.3481 9.34375 17.5 9.34375C17.6519 9.34375 17.775 9.46967 17.775 9.625ZM6.775 9.625C6.775 9.78036 6.65188 9.90625 6.5 9.90625C6.34812 9.90625 6.225 9.78036 6.225 9.625C6.225 9.46967 6.34812 9.34375 6.5 9.34375C6.65188 9.34375 6.775 9.46967 6.775 9.625ZM15.96 22H20.14C20.7561 22 21.0641 22 21.2994 21.8774C21.5064 21.7695 21.6746 21.5975 21.7801 21.3858C21.9 21.1451 21.9 20.8301 21.9 20.2V19.3C21.9 18.6699 21.9 18.3549 21.7801 18.1142C21.6746 17.9025 21.5064 17.7305 21.2994 17.6226C21.0641 17.5 20.7561 17.5 20.14 17.5H15.96C15.3439 17.5 15.0359 17.5 14.8006 17.6226C14.5936 17.7305 14.4254 17.9025 14.3199 18.1142C14.2 18.3549 14.2 18.6699 14.2 19.3V20.2C14.2 20.8301 14.2 21.1451 14.3199 21.3858C14.4254 21.5975 14.5936 21.7695 14.8006 21.8774C15.0359 22 15.3439 22 15.96 22Z" stroke="currentColor" stroke-linecap="round" stroke-linejoin="round"/>
</svg>
