<svg width="24" height="24" viewBox="0 0 24 24" fill="none" xmlns="http://www.w3.org/2000/svg">
<path d="M1 9.04851C1 8.66131 1 8.46771 1.01608 8.30465C1.17116 6.73193 2.4094 5.48777 3.97463 5.33195C4.13691 5.31579 4.34 5.31579 4.74614 5.31579C4.90264 5.31579 4.98089 5.31579 5.04733 5.31174C5.89567 5.26012 6.63855 4.72213 6.95555 3.92979C6.98038 3.86774 7.00359 3.79779 7.05 3.65789C7.09641 3.518 7.11962 3.44805 7.14445 3.386C7.46145 2.59366 8.20433 2.05567 9.05267 2.00405C9.11911 2 9.19249 2 9.33925 2H14.6608C14.8075 2 14.8809 2 14.9473 2.00405C15.7957 2.05567 16.5386 2.59366 16.8555 3.386C16.8804 3.44805 16.9036 3.518 16.95 3.65789C16.9964 3.79779 17.0196 3.86774 17.0445 3.92979C17.3614 4.72213 18.1043 5.26012 18.9527 5.31174C19.0191 5.31579 19.0973 5.31579 19.2538 5.31579C19.66 5.31579 19.8631 5.31579 20.0254 5.33195C21.5906 5.48777 22.8288 6.73193 22.9839 8.30465C23 8.46771 23 8.66131 23 9.04851V16.6947C23 18.5518 23 19.4802 22.6403 20.1896C22.3239 20.8135 21.8192 21.3207 21.1982 21.6386C20.4922 22 19.5682 22 17.72 22H6.28C4.43182 22 3.50774 22 2.80183 21.6386C2.18089 21.3207 1.67606 20.8135 1.35968 20.1896C1 19.4802 1 18.5518 1 16.6947V9.04851Z" stroke="currentColor" stroke-linecap="round" stroke-linejoin="round"/>
<path d="M12 17.5C14.4852 17.5 16.5 15.4852 16.5 13C16.5 10.5148 14.4852 8.5 12 8.5C9.51472 8.5 7.5 10.5148 7.5 13C7.5 15.4852 9.51472 17.5 12 17.5Z" stroke="currentColor" stroke-linecap="round" stroke-linejoin="round"/>
</svg>
