<svg width="24" height="24" viewBox="0 0 24 24" fill="none" xmlns="http://www.w3.org/2000/svg">
<path d="M12 0.875C17.1593 0.875026 21.3417 5.05753 21.3418 10.2168C21.3418 12.8168 20.1628 15.134 18.4746 17.3262C16.7913 19.512 14.5473 21.6392 12.3535 23.833C12.1583 24.0283 11.8417 24.0283 11.6465 23.833C9.45266 21.6392 7.20875 19.512 5.52539 17.3262C3.83718 15.134 2.6582 12.8169 2.6582 10.2168C2.65826 5.05751 6.8407 0.875003 12 0.875ZM12 1.875C7.39299 1.875 3.65826 5.6098 3.6582 10.2168C3.6582 12.4999 4.69001 14.6037 6.31738 16.7168C7.86331 18.7241 9.89719 20.6811 12 22.7744C14.1028 20.6811 16.1367 18.7241 17.6826 16.7168C19.31 14.6037 20.3418 12.4999 20.3418 10.2168C20.3417 5.60981 16.607 1.87503 12 1.875ZM11.999 6.40137C14.1063 6.40137 15.8153 8.10958 15.8154 10.2168C15.8152 12.324 14.1063 14.0332 11.999 14.0332C9.89208 14.0328 8.18377 12.3238 8.18359 10.2168C8.18373 8.10982 9.89205 6.40176 11.999 6.40137ZM11.999 7.40137C10.4443 7.40176 9.18373 8.6621 9.18359 10.2168C9.18377 11.7715 10.4444 13.0328 11.999 13.0332C13.554 13.0332 14.8152 11.7717 14.8154 10.2168C14.8153 8.66185 13.554 7.40137 11.999 7.40137Z" fill="currentColor"/>
</svg>
