<svg width="24" height="24" viewBox="0 0 24 24" fill="none" xmlns="http://www.w3.org/2000/svg">
<g clip-path="url(#clip0_1_7705)">
<path d="M7.10772 1H6.86341C4.81102 1 3.78483 1 3.00093 1.39964C2.31138 1.75118 1.75076 2.3121 1.39942 3.00204C1 3.78637 1 4.81314 1 6.86667V7.11111M7.10772 23H6.86341C4.81102 23 3.78483 23 3.00093 22.6003C2.31138 22.2488 1.75076 21.6879 1.39942 20.998C1 20.2136 1 19.1869 1 17.1333V16.8889M22.9878 7.11111V6.86667C22.9878 4.81314 22.9878 3.78637 22.5883 3.00204C22.237 2.3121 21.6765 1.75118 20.9869 1.39964C20.2029 1 19.1768 1 17.1244 1H16.8801M22.9878 16.8889V17.1333C22.9878 19.1869 22.9878 20.2136 22.5883 20.998C22.237 21.6879 21.6765 22.2488 20.9869 22.6003C20.2029 23 19.1768 23 17.1244 23H16.8801M1 12H1.01222M6.49695 12H6.50916M17.4908 12H17.5031M11.9939 12H12.0061M22.9878 12H23" stroke="currentColor" stroke-linecap="round" stroke-linejoin="round"/>
</g>
<defs>
<clipPath id="clip0_1_7705">
<rect width="24" height="24" fill="white"/>
</clipPath>
</defs>
</svg>
