<svg width="24" height="24" viewBox="0 0 24 24" fill="none" xmlns="http://www.w3.org/2000/svg">
<g clip-path="url(#clip0_1_7762)">
<path d="M11.1248 2.00825C11.4059 1.43668 11.5466 1.1509 11.7374 1.05958C11.9035 0.980139 12.0965 0.980139 12.2625 1.05958C12.4535 1.1509 12.594 1.43668 12.8753 2.00825L15.5432 7.43084C15.6261 7.59958 15.6676 7.68395 15.7282 7.74947C15.782 7.80746 15.8465 7.85445 15.918 7.88784C15.9988 7.92554 16.0916 7.93915 16.2771 7.96636L22.2448 8.8415C22.8733 8.93365 23.1874 8.97972 23.3329 9.13372C23.4594 9.26769 23.5188 9.45181 23.4948 9.63477C23.4671 9.84508 23.2396 10.0674 22.7847 10.512L18.468 14.7301C18.3335 14.8616 18.2662 14.9274 18.2228 15.0057C18.1843 15.0748 18.1597 15.151 18.1502 15.2297C18.1394 15.3185 18.1553 15.4114 18.187 15.5971L19.2056 21.5552C19.313 22.1836 19.3667 22.4978 19.2658 22.6843C19.178 22.8465 19.0219 22.9603 18.841 22.994C18.633 23.0326 18.3517 22.8842 17.7893 22.5874L12.4543 19.7726C12.288 19.6849 12.205 19.6411 12.1174 19.6238C12.0399 19.6085 11.9601 19.6085 11.8826 19.6238C11.795 19.6411 11.7119 19.6849 11.5458 19.7726L6.21072 22.5874C5.64827 22.8842 5.36704 23.0326 5.15909 22.994C4.97817 22.9603 4.82205 22.8465 4.73423 22.6843C4.63328 22.4978 4.687 22.1836 4.79442 21.5552L5.81294 15.5971C5.84469 15.4114 5.86057 15.3185 5.84983 15.2297C5.84031 15.151 5.81565 15.0748 5.77722 15.0057C5.7338 14.9274 5.66652 14.8616 5.53196 14.7301L1.21537 10.512C0.760406 10.0674 0.532927 9.84508 0.505256 9.63477C0.481172 9.45181 0.540662 9.26769 0.667182 9.13372C0.8126 8.97972 1.1268 8.93365 1.75522 8.8415L7.72285 7.96636C7.90843 7.93915 8.00123 7.92554 8.08204 7.88784C8.15359 7.85445 8.21801 7.80746 8.27173 7.74947C8.33239 7.68395 8.37389 7.59958 8.45691 7.43084L11.1248 2.00825Z" stroke="currentColor" stroke-linecap="round" stroke-linejoin="round"/>
</g>
<defs>
<clipPath id="clip0_1_7762">
<rect width="24" height="24" fill="white"/>
</clipPath>
</defs>
</svg>
