<svg width="24" height="24" viewBox="0 0 24 24" fill="none" xmlns="http://www.w3.org/2000/svg">
<g clip-path="url(#clip0_126_3309)">
<path d="M8.7 1V4.3M15.3 1V4.3M8.7 19.7V23M15.3 19.7V23M19.7 8.7H23M19.7 14.2H23M1 8.7H4.3M1 14.2H4.3M9.58 19.7H14.42C16.2682 19.7 17.1922 19.7 17.8982 19.3403C18.5191 19.0239 19.0239 18.5191 19.3403 17.8982C19.7 17.1922 19.7 16.2682 19.7 14.42V9.58C19.7 7.73182 19.7 6.80774 19.3403 6.10183C19.0239 5.48089 18.5191 4.97606 17.8982 4.65968C17.1922 4.3 16.2682 4.3 14.42 4.3H9.58C7.73182 4.3 6.80774 4.3 6.10183 4.65968C5.48089 4.97606 4.97606 5.48089 4.65968 6.10183C4.3 6.80774 4.3 7.73182 4.3 9.58V14.42C4.3 16.2682 4.3 17.1922 4.65968 17.8982C4.97606 18.5191 5.48089 19.0239 6.10183 19.3403C6.80774 19.7 7.73182 19.7 9.58 19.7Z" stroke="currentColor" stroke-linecap="round" stroke-linejoin="round"/>
</g>
<defs>
<clipPath id="clip0_126_3309">
<rect width="24" height="24" fill="white"/>
</clipPath>
</defs>
</svg>
