<svg width="16" height="16" viewBox="0 0 16 16" fill="none" xmlns="http://www.w3.org/2000/svg">
<path d="M0.420356 7.65389C0.457099 7.63516 0.49386 7.61737 0.529685 7.60051C1.15249 7.30643 1.78356 7.03108 2.41372 6.75573C2.44771 6.75573 2.50465 6.71546 2.5368 6.70235C2.58548 6.68081 2.63418 6.6602 2.68286 6.63866L2.96304 6.51597C3.15043 6.43449 3.33689 6.35301 3.52428 6.27153C3.89815 6.10857 4.27201 5.94561 4.64588 5.78171C5.39362 5.45579 6.14228 5.12893 6.89002 4.80301C7.63775 4.47708 8.3864 4.15022 9.13413 3.8243C9.88187 3.49838 10.6305 3.17152 11.3782 2.8456C12.126 2.51967 12.8747 2.19281 13.6224 1.86689C13.7887 1.79384 13.9687 1.6852 14.1469 1.65336C14.2966 1.6262 14.4427 1.57375 14.5933 1.54472C14.879 1.48946 15.1941 1.46698 15.4678 1.5878C15.5624 1.62994 15.6497 1.68895 15.7223 1.76293C16.0695 2.11321 16.0208 2.68825 15.9473 3.18088C15.4357 6.61431 14.924 10.0487 14.4114 13.4821C14.3416 13.9532 14.2461 14.4702 13.8814 14.768C13.5728 15.0199 13.1337 15.048 12.7525 14.9413C12.3712 14.8336 12.035 14.6078 11.7053 14.3859C10.3375 13.4624 8.96879 12.539 7.60101 11.6155C7.27583 11.3964 6.91391 11.1098 6.91758 10.7118C6.91942 10.472 7.05995 10.2585 7.20325 10.0683C8.39191 8.48743 10.1069 7.40102 11.3828 5.89316C11.5629 5.68056 11.7044 5.29657 11.4573 5.17388C11.3103 5.10083 11.1412 5.20011 11.0071 5.2947C9.3206 6.48881 7.635 7.68386 5.94846 8.87797C5.39822 9.26758 4.82135 9.66843 4.15813 9.76396C3.56471 9.85012 2.96763 9.68154 2.39351 9.50922C1.91217 9.36499 1.43173 9.21701 0.953144 9.06435C0.698694 8.98381 0.435974 8.89671 0.239396 8.71408C0.0428169 8.53145 -0.0701547 8.22426 0.0483437 7.98075C0.12275 7.82809 0.266971 7.73163 0.418539 7.65296L0.420356 7.65389Z" fill="currentColor"/>
</svg>
