<svg width="16" height="16" viewBox="0 0 16 16" fill="none" xmlns="http://www.w3.org/2000/svg">
<g clip-path="url(#clip0_4448_6157)">
<path d="M8.26318 0.5C10.2071 0.500037 12.0658 1.22716 13.4985 2.5459C14.9225 3.85681 15.8006 5.63388 15.9702 7.5498H15.9692C15.9899 7.77523 16.0005 8.00793 16.0005 8.24023V8.28223C15.9797 11.9328 13.3711 15.1049 9.79834 15.8271C9.55919 15.8753 9.31558 15.9127 9.07471 15.9385C8.80107 15.9669 8.5281 15.9814 8.26221 15.9814C7.25108 15.9814 6.26787 15.7887 5.33936 15.4082L0.000488281 15.9766L1.66748 12.2842C0.919678 11.0687 0.524902 9.67263 0.524902 8.24023C0.525092 3.97246 3.99678 0.5 8.26318 0.5ZM8.26318 2.0625C4.85727 2.0625 2.08655 4.8342 2.08643 8.24121C2.08643 9.54793 2.49047 10.7985 3.25635 11.8564C3.27091 11.8762 3.2845 11.893 3.29736 11.9102L3.47314 12.1465L2.59131 14.1016L5.54541 13.7871L5.54639 13.7881L5.65771 13.8428C5.73424 13.8798 5.8165 13.9157 5.8999 13.9492C6.65115 14.2626 7.44677 14.4209 8.26514 14.4209C8.49477 14.4209 8.72633 14.4086 8.95166 14.3828C9.16835 14.3596 9.38575 14.3227 9.59814 14.2754C12.3828 13.659 14.3736 11.2388 14.439 8.38867C14.4398 8.33788 14.4409 8.29039 14.4409 8.24219C14.4409 8.07351 14.4332 7.90185 14.4194 7.73145C14.1585 4.55268 11.4538 2.06258 8.26318 2.0625ZM6.13818 4.68555C6.21989 4.68555 6.30101 4.6923 6.37842 4.70605C6.5488 4.73446 6.71099 4.79294 6.85986 4.87988C6.88116 4.89281 6.8955 4.91355 6.89893 4.9375L7.23096 7.03125C7.23526 7.0562 7.22776 7.08056 7.21143 7.09863C7.02819 7.30172 6.79433 7.44829 6.53369 7.52148L6.40771 7.55664L6.45459 7.67773C6.88313 8.76925 7.75613 9.64186 8.84814 10.0723L8.96924 10.1201L9.00439 9.99414C9.07754 9.73348 9.22431 9.49968 9.42725 9.31641C9.44188 9.30263 9.46214 9.2959 9.48193 9.2959C9.48611 9.2959 9.49059 9.29604 9.49561 9.29688L11.5894 9.62891C11.6141 9.63328 11.6351 9.64658 11.6479 9.66797C11.734 9.81689 11.7915 9.97995 11.8208 10.1504C11.8346 10.2261 11.8403 10.3062 11.8403 10.3896C11.8403 11.1859 11.1919 11.8341 10.395 11.835C7.25169 11.8347 4.69471 9.27528 4.69385 6.13086C4.69488 5.33396 5.34325 4.68566 6.13818 4.68555Z" fill="currentColor"/>
</g>
<defs>
<clipPath id="clip0_4448_6157">
<rect width="16" height="16" fill="white"/>
</clipPath>
</defs>
</svg>
