<svg width="16" height="16" viewBox="0 0 16 16" fill="none" xmlns="http://www.w3.org/2000/svg">
<g clip-path="url(#clip0_4448_3454)">
<path d="M12.6411 2.5C13.3799 2.5 14.1731 2.515 14.7759 2.94238C15.5541 3.4936 15.7654 4.54246 15.8628 5.49121C16.0427 7.23865 16.0451 9.00451 15.8696 10.752C15.7968 11.4724 15.6762 12.2345 15.2017 12.7812C14.7313 13.3237 14.0331 13.5324 13.3013 13.6123L13.3003 13.6133C12.9285 13.6536 12.5479 13.661 12.1831 13.6602C9.33564 13.6575 6.48771 13.6551 3.64111 13.6533C2.74521 13.6533 1.76899 13.6243 1.07666 13.0547C0.296722 12.4113 0.134952 11.2954 0.0717773 10.2861C-0.0159709 8.90287 -0.0236144 7.515 0.0483398 6.13086C0.0878289 5.37083 0.157588 4.59236 0.484863 3.9043C0.719993 3.41025 1.11198 2.96592 1.61377 2.73242C2.1973 2.46121 2.80873 2.50967 3.43701 2.50879C4.94092 2.50703 6.44483 2.50566 7.94873 2.50391C9.51243 2.50215 11.0774 2.50176 12.6411 2.5ZM6.30225 10.5332L10.5464 8.08203L6.30225 5.63184V10.5332Z" fill="currentColor"/>
</g>
<defs>
<clipPath id="clip0_4448_3454">
<rect width="16" height="16" fill="white"/>
</clipPath>
</defs>
</svg>
