<?xml version="1.0" encoding="UTF-8"?>
<!-- This file is generated by npm run build:icons -->
<svg xmlns="http://www.w3.org/2000/svg" xmlns:xlink="http://www.w3.org/1999/xlink" width="0" height="0">
<defs>
<symbol viewBox="0 0 24 24" fill="none" id="3-dots">
<path d="M3 10.5C3.82843 10.5 4.5 11.1716 4.5 12C4.5 12.8284 3.82843 13.5 3 13.5C2.17157 13.5 1.5 12.8284 1.5 12C1.5 11.1716 2.17157 10.5 3 10.5ZM12 10.5C12.8284 10.5 13.5 11.1716 13.5 12C13.5 12.8284 12.8284 13.5 12 13.5C11.1716 13.5 10.5 12.8284 10.5 12C10.5 11.1716 11.1716 10.5 12 10.5ZM21 10.5C21.8284 10.5 22.5 11.1716 22.5 12C22.5 12.8284 21.8284 13.5 21 13.5C20.1716 13.5 19.5 12.8284 19.5 12C19.5 11.1716 20.1716 10.5 21 10.5Z" fill="#121212"></path>
</symbol>
<symbol viewBox="0 0 24 24" fill="none" id="activities">
<path d="M22 12H16.2L14.1 18L9.9 6L7.8 12H2" stroke="currentColor" stroke-linejoin="round"></path>
<rect x="1.5" y="1.5" width="21" height="21" rx="8.5" stroke="currentColor"></rect>
</symbol>
<symbol viewBox="0 0 24 24" fill="none" id="add-collection">
<path d="M21.3421 6.72964L11.9474 12M11.9474 12L2.5526 6.72964M11.9474 12V22.6026M14.1579 21.9206L12.8062 22.6789C12.4927 22.8547 12.336 22.9426 12.1701 22.9771C12.0231 23.0076 11.8717 23.0076 11.7248 22.9771C11.5588 22.9426 11.402 22.8547 11.0886 22.6789L2.9096 18.0906C2.57856 17.9049 2.41301 17.812 2.29249 17.6799C2.18586 17.5631 2.10517 17.4246 2.05579 17.2737C2 17.1032 2 16.912 2 16.5296V7.47038C2 7.08797 2 6.89676 2.05579 6.72623C2.10517 6.57536 2.18586 6.43688 2.29249 6.32004C2.41301 6.18796 2.57855 6.0951 2.9096 5.90939L11.0886 1.32112C11.402 1.14528 11.5588 1.05735 11.7248 1.02288C11.8717 0.992374 12.0231 0.992374 12.1701 1.02288C12.336 1.05735 12.4927 1.14528 12.8062 1.32112L20.9851 5.90939C21.3162 6.0951 21.4817 6.18796 21.6023 6.32004C21.7088 6.43688 21.7896 6.57536 21.8389 6.72623C21.8947 6.89676 21.8947 7.08797 21.8947 7.47038V12.558M6.97368 3.62949L16.9211 9.20982M19 23V15M15 19H23" stroke="currentColor" stroke-linecap="round" stroke-linejoin="round"></path>
</symbol>
<symbol viewBox="0 0 24 24" fill="none" id="add-friends">
<path d="M19.3999 22.3333V14.3333M15.3999 18.3333H23.3999" stroke="currentColor" stroke-linecap="round" stroke-linejoin="round"></path>
<path d="M16.4 3.52279C18.0299 4.34577 19.15 6.05469 19.15 8.02941C19.15 10.0041 18.0299 11.7131 16.4 12.536M1 22C3.14114 19.2311 6.0481 17.5294 9.25 17.5294C10.5601 17.5294 11.8209 17.8143 13 18.3407M14.2 8.02941C14.2 10.8071 11.9838 13.0588 9.25 13.0588C6.51619 13.0588 4.3 10.8071 4.3 8.02941C4.3 5.25175 6.51619 3 9.25 3C11.9838 3 14.2 5.25175 14.2 8.02941Z" stroke="currentColor" stroke-linecap="round" stroke-linejoin="round"></path>
</symbol>
<symbol viewBox="0 0 24 24" fill="none" id="add-revouch">
<g clip-path="url(#clip0_1_7737)">
<path d="M23 12C23 13.8004 22.5674 15.4999 21.8006 17L23 23L17 21.8006C15.4999 22.5674 13.8004 23 12 23C5.92487 23 1 18.0751 1 12C1 5.92487 5.92487 1 12 1C18.0751 1 23 5.92487 23 12Z" stroke="currentColor" stroke-linecap="round"></path>
<path d="M12 7.5V16.5" stroke="currentColor" stroke-linecap="round"></path>
<path d="M16.5 12L7.5 12" stroke="currentColor" stroke-linecap="round"></path>
</g>
<defs>
<clipPath id="clip0_1_7737">
<rect width="24" height="24" fill="white"></rect>
</clipPath>
</defs>
</symbol>
<symbol viewBox="0 0 24 24" fill="none" id="all">
<path d="M1.37056 12.316C1.17613 11.1008 2.11481 10 3.34544 10H20.6546C21.8852 10 22.8239 11.1008 22.6294 12.316L21.2694 20.816C21.1142 21.7862 20.2772 22.5 19.2946 22.5H4.70544C3.72285 22.5 2.8858 21.7862 2.73056 20.816L1.37056 12.316Z" stroke="#121212" stroke-linecap="round" stroke-linejoin="round"></path>
<path d="M21 9.5V6.5C21 5.39543 20.1046 4.5 19 4.5H11.7208C11.2903 4.5 10.9082 4.22457 10.7721 3.81623L10.4558 2.86754C10.1836 2.05086 9.41934 1.5 8.55848 1.5H5C3.89543 1.5 3 2.39543 3 3.5V9.5" stroke="#121212" stroke-linecap="round" stroke-linejoin="round"></path>
</symbol>
<symbol viewBox="0 0 24 24" fill="none" id="apple">
  <path d="M15.676 3.87879C14.8275 4.84848 13.4941 5.69697 12.1608 5.57576C11.9184 4.12121 12.6457 2.66667 13.3729 1.81818C14.2214 0.727273 15.676 0 16.8881 0C17.0093 1.33333 16.5245 2.78788 15.676 3.87879ZM16.8881 5.81818C17.6154 5.81818 19.7972 6.0606 21.2517 8.24242C21.1305 8.36364 18.7063 9.81818 18.7063 12.8485C18.7063 16.4848 21.8578 17.697 21.8578 17.697C21.8578 17.8182 21.3729 19.3939 20.282 21.0909C19.3123 22.5455 18.2214 24 16.6457 24C15.0699 24 14.5851 23.0303 12.7669 23.0303C10.9487 23.0303 10.3426 24 8.88809 24C7.31233 24 6.10021 22.4242 5.13051 20.9697C3.0699 17.9394 1.49415 12.4848 3.67597 8.84848C4.64566 7.0303 6.58506 5.81818 8.52445 5.81818C10.1002 5.81818 11.5548 6.90909 12.4032 6.90909C13.2517 6.90909 14.9487 5.69697 16.8881 5.81818Z" fill="black"></path>
</symbol>
<symbol viewBox="0 0 24 24" fill="none" id="arrow-left">
<path d="M8.77817 19.7782L1 12M1 12L8.77817 4.22183M1 12H23" stroke="currentColor" stroke-linecap="round"></path>
</symbol>
<symbol viewBox="0 0 24 24" fill="none" id="arrow-right">
<path d="M15.2218 4.22182L23 12M23 12L15.2218 19.7782M23 12H0.999999" stroke="currentColor" stroke-linecap="round"></path>
</symbol>
<symbol viewBox="0 0 24 24" fill="none" id="bio">
<g clip-path="url(#clip0_636_3410)">
<path d="M16.2002 4.65005L18.3002 6.75005L22.5002 2.55005" stroke="currentColor" stroke-linecap="round" stroke-linejoin="round"></path>
<path d="M23 12V16C23 19.866 19.866 23 16 23H8C4.13401 23 1 19.866 1 16V8C1 4.13401 4.13401 1 8 1H12" stroke="currentColor" stroke-linecap="round" stroke-linejoin="round"></path>
<path d="M3 20.9127C4.81705 19.4014 6.95796 18.5294 9.25 18.5294C12.3078 18.5294 15.0966 20.0814 17.2063 22.6327M14.2 9.02941C14.2 11.8071 11.9838 14.0588 9.25 14.0588C6.51619 14.0588 4.3 11.8071 4.3 9.02941C4.3 6.25175 6.51619 4 9.25 4C11.9838 4 14.2 6.25175 14.2 9.02941Z" stroke="currentColor" stroke-linecap="round" stroke-linejoin="round"></path>
</g>
<defs>
<clipPath id="clip0_636_3410">
<rect width="24" height="24" fill="white"></rect>
</clipPath>
</defs>
</symbol>
<symbol viewBox="0 0 24 24" fill="none" id="block">
<g clip-path="url(#clip0_3245_19489)">
<path d="M4.45014 20L19 3.51434M23 12C23 18.0751 18.0751 23 12 23C5.92486 23 1 18.0751 1 12C1 5.92486 5.92486 1 12 1C18.0751 1 23 5.92486 23 12Z" stroke="currentColor" stroke-linecap="round" stroke-linejoin="round"></path>
</g>
<defs>
<clipPath id="clip0_3245_19489">
<rect width="24" height="24" fill="white"></rect>
</clipPath>
</defs>
</symbol>
<symbol viewBox="0 0 24 24" fill="none" id="books">
<path d="M12.1111 22L11.9999 21.8332C11.2281 20.6756 10.8422 20.0967 10.3323 19.6776C9.88096 19.3066 9.36085 19.0282 8.80179 18.8584C8.17028 18.6667 7.47457 18.6667 6.08313 18.6667H4.55556C3.31099 18.6667 2.68871 18.6667 2.21336 18.4244C1.79521 18.2114 1.45526 17.8714 1.24221 17.4533C1 16.978 1 16.3557 1 15.1111V5.55556C1 4.31099 1 3.68871 1.24221 3.21336C1.45526 2.79521 1.79521 2.45526 2.21336 2.24221C2.68871 2 3.31099 2 4.55556 2H5C7.48912 2 8.73368 2 9.6844 2.48441C10.5207 2.91052 11.2006 3.59043 11.6267 4.42671C12.1111 5.37742 12.1111 6.62199 12.1111 9.11111M12.1111 22V9.11111M12.1111 22L12.2223 21.8332C12.9941 20.6756 13.38 20.0967 13.8899 19.6776C14.3412 19.3066 14.8613 19.0282 15.4204 18.8584C16.0519 18.6667 16.7477 18.6667 18.1391 18.6667H19.6667C20.9112 18.6667 21.5336 18.6667 22.0089 18.4244C22.427 18.2114 22.767 17.8714 22.98 17.4533C23.2222 16.978 23.2222 16.3557 23.2222 15.1111V5.55556C23.2222 4.31099 23.2222 3.68871 22.98 3.21336C22.767 2.79521 22.427 2.45526 22.0089 2.24221C21.5336 2 20.9112 2 19.6667 2H19.2222C16.7331 2 15.4886 2 14.5378 2.48441C13.7016 2.91052 13.0217 3.59043 12.5956 4.42671C12.1111 5.37742 12.1111 6.62199 12.1111 9.11111" stroke="currentColor" stroke-linecap="round" stroke-linejoin="round"></path>
</symbol>
<symbol viewBox="0 0 24 24" fill="none" id="checkbox">
<path d="M19 7L10.7484 16L5 9.80102" stroke="currentColor" stroke-width="1.5" stroke-linecap="round"></path>
</symbol>
<symbol viewBox="0 0 24 24" fill="none" id="chevron-bottom">
<path d="M7.34315 11L12 15.6569L16.6569 11" stroke="currentColor" stroke-width="2" stroke-linecap="round"></path>
</symbol>
<symbol viewBox="0 0 24 24" fill="none" id="chevron-left">
<path d="M13.1569 16.6569L8.5 12L13.1569 7.34314" stroke="currentColor" stroke-width="2" stroke-linecap="round"></path>
</symbol>
<symbol viewBox="0 0 24 24" fill="none" id="chevron-right">
<path d="M10.8431 7.34315L15.5 12L10.8431 16.6569" stroke="currentColor" stroke-width="2" stroke-linecap="round"></path>
</symbol>
<symbol viewBox="0 0 24 24" fill="none" id="chevron-top">
<path d="M7.34315 14L12 9.34314L16.6569 14" stroke="currentColor" stroke-width="2" stroke-linecap="round"></path>
</symbol>
<symbol viewBox="0 0 24 24" fill="none" id="close">
<path d="M4 4L20 20" stroke="currentColor" stroke-linecap="round"></path>
<path d="M20 4L4 20" stroke="currentColor" stroke-linecap="round"></path>
</symbol>
<symbol viewBox="0 0 24 24" fill="none" id="clothing">
<path d="M17 8C15.4497 8 13.8993 8 12.0352 8C11.4694 8 11.0162 8.469 11.0357 9.03446L11.5 22.5H15L16.8048 14.3786C16.8512 14.1697 17.1488 14.1697 17.1952 14.3786L19 22.5H22.5L22.9643 9.03446C22.9838 8.469 22.5306 8 21.9648 8C20.1007 8 18.5503 8 17 8ZM17 8V11.5" stroke="currentColor" stroke-linecap="round"></path>
<path d="M19 5.5L16.3 1.9C16.1111 1.64819 15.8148 1.5 15.5 1.5H13.677C13.2681 1.5 12.9052 1.7517 12.7104 2.11121C12.2509 2.95911 11.4483 4 10.5 4C9.55167 4 8.74906 2.95911 8.2896 2.11121C8.09479 1.7517 7.73187 1.5 7.32297 1.5H5.44536C5.16188 1.5 4.89171 1.62032 4.70207 1.83104L1.13468 5.7948C0.778887 6.19013 0.794788 6.79479 1.17087 7.17087L2.79289 8.79289C3.18342 9.18342 3.81658 9.18342 4.20711 8.79289L4.25 8.75L5 8M5 8V6.5M5 8V16C5 16.5523 5.44772 17 6 17H9" stroke="currentColor" stroke-linecap="round"></path>
</symbol>
<symbol viewBox="0 0 24 24" fill="none" id="collections">
<path d="M21.3421 6.72964L11.9474 12M11.9474 12L2.5526 6.72964M11.9474 12V22.6026M14.1579 21.9206L12.8062 22.6789C12.4927 22.8547 12.336 22.9426 12.1701 22.9771C12.0231 23.0076 11.8717 23.0076 11.7248 22.9771C11.5588 22.9426 11.402 22.8547 11.0886 22.6789L2.9096 18.0906C2.57856 17.9049 2.41301 17.812 2.29249 17.6799C2.18586 17.5631 2.10517 17.4246 2.05579 17.2737C2 17.1032 2 16.912 2 16.5296V7.47038C2 7.08797 2 6.89676 2.05579 6.72623C2.10517 6.57536 2.18586 6.43688 2.29249 6.32004C2.41301 6.18796 2.57855 6.0951 2.9096 5.90939L11.0886 1.32112C11.402 1.14528 11.5588 1.05735 11.7248 1.02288C11.8717 0.992374 12.0231 0.992374 12.1701 1.02288C12.336 1.05735 12.4927 1.14528 12.8062 1.32112L20.9851 5.90939C21.3162 6.0951 21.4817 6.18796 21.6023 6.32004C21.7088 6.43688 21.7896 6.57536 21.8389 6.72623C21.8947 6.89676 21.8947 7.08797 21.8947 7.47038V12.558M6.97368 3.62949L16.9211 9.20982M16.3684 18.6964L18.5789 20.9285L23 16.4643" stroke="currentColor" stroke-linecap="round" stroke-linejoin="round"></path>
</symbol>
<symbol viewBox="0 0 24 24" fill="none" id="comment">
<g clip-path="url(#clip0_1_7734)">
<path d="M23 12C23 13.8004 22.5674 15.4999 21.8006 17L23 23L17 21.8006C15.4999 22.5674 13.8004 23 12 23C5.92487 23 1 18.0751 1 12C1 5.92487 5.92487 1 12 1C18.0751 1 23 5.92487 23 12Z" stroke="currentColor" stroke-linecap="round"></path>
</g>
<defs>
<clipPath id="clip0_1_7734">
<rect width="24" height="24" fill="white"></rect>
</clipPath>
</defs>
</symbol>
<symbol viewBox="0 0 24 24" fill="none" id="edit-profile">
<path d="M13.0083 23.0181L15.8886 22.1951C16.0265 22.1558 16.0954 22.136 16.1597 22.1065C16.2168 22.0803 16.2712 22.0483 16.3218 22.0112C16.3788 21.9693 16.4295 21.9186 16.531 21.8171L22.5274 15.8207C23.1686 15.1796 23.1686 14.14 22.5274 13.4989C21.8863 12.8578 20.8469 12.8578 20.2057 13.4989L14.2093 19.4953C14.1078 19.5968 14.0571 19.6476 14.0152 19.7046C13.978 19.7552 13.9461 19.8095 13.9199 19.8666C13.8903 19.931 13.8706 19.9999 13.8312 20.1379L13.0083 23.0181Z" stroke="currentColor" stroke-linecap="round" stroke-linejoin="round"></path>
<path d="M1 22C3.27091 19.0854 6.35404 17.2941 9.75 17.2941C10.5179 17.2941 11.2698 17.3857 12 17.5612M15 7.29412C15 10.218 12.6495 12.5882 9.75 12.5882C6.85051 12.5882 4.5 10.218 4.5 7.29412C4.5 4.37026 6.85051 2 9.75 2C12.6495 2 15 4.37026 15 7.29412Z" stroke="currentColor" stroke-linecap="round" stroke-linejoin="round"></path>
</symbol>
<symbol viewBox="0 0 24 24" fill="none" id="edit">
<g clip-path="url(#clip0_3315_24736)">
<path d="M10.8403 3.31938H6.24817C4.41114 3.31938 3.49262 3.31938 2.79097 3.67689C2.17378 3.99136 1.67198 4.49316 1.35751 5.11035C1 5.812 1 6.73052 1 8.56754V17.7518C1 19.5888 1 20.5073 1.35751 21.2091C1.67198 21.8262 2.17378 22.328 2.79097 22.6425C3.49262 23 4.41114 23 6.24817 23H15.4325C17.2695 23 18.188 23 18.8897 22.6425C19.5069 22.328 20.0087 21.8262 20.3231 21.2091C20.6806 20.5073 20.6806 19.5888 20.6806 17.7518V13.1597M7.56018 16.4398H9.39108C9.92593 16.4398 10.1934 16.4398 10.4451 16.3793C10.6681 16.3258 10.8814 16.2374 11.0771 16.1176C11.2978 15.9823 11.4869 15.7932 11.8651 15.415L22.3207 4.95943C23.2264 4.05366 23.2264 2.58511 22.3207 1.67933C21.4149 0.773562 19.9463 0.773551 19.0406 1.67933L8.58495 12.1349C8.20675 12.5131 8.01766 12.7022 7.88242 12.9229C7.76253 13.1186 7.67417 13.3318 7.6206 13.555C7.56018 13.8066 7.56018 14.0741 7.56018 14.609V16.4398Z" stroke="currentColor" stroke-linecap="round" stroke-linejoin="round"></path>
</g>
<defs>
<clipPath id="clip0_3315_24736">
<rect width="24" height="24" fill="white"></rect>
</clipPath>
</defs>
</symbol>
<symbol viewBox="0 0 24 24" fill="none" id="education">
<path d="M2 23H12M10.8889 5.67724C11.5991 5.49626 12.3438 5.4 13.1111 5.4C18.0203 5.4 22 9.33989 22 14.2C22 17.8931 19.702 21.0549 16.4444 22.3604M4.77778 13.1H9.22222C9.73851 13.1 9.99667 13.1 10.2113 13.1422C11.0929 13.3158 11.782 13.998 11.9573 14.8708C12 15.0833 12 15.3388 12 15.85C12 16.3612 12 16.6167 11.9573 16.8292C11.782 17.702 11.0929 18.3842 10.2113 18.5578C9.99667 18.6 9.73851 18.6 9.22222 18.6H4.77778C4.26149 18.6 4.00336 18.6 3.78869 18.5578C2.90716 18.3842 2.21804 17.702 2.0427 16.8292C2 16.6167 2 16.3612 2 15.85C2 15.3388 2 15.0833 2.0427 14.8708C2.21804 13.998 2.90716 13.3158 3.78869 13.1422C4.00336 13.1 4.26149 13.1 4.77778 13.1ZM3.11111 4.85V13.1H10.8889V4.85C10.8889 2.7237 9.14778 1 7 1C4.85222 1 3.11111 2.7237 3.11111 4.85Z" stroke="currentColor" stroke-linecap="round" stroke-linejoin="round"></path>
</symbol>
<symbol viewBox="0 0 24 24" fill="none" id="email">
<path d="M1 6.375L9.98139 12.8048C10.7087 13.3256 11.0724 13.5859 11.4679 13.6867C11.8173 13.7758 12.1827 13.7758 12.5321 13.6867C12.9276 13.5859 13.2913 13.3256 14.0186 12.8048L23 6.375M6.28 21H17.72C19.5682 21 20.4922 21 21.1982 20.6321C21.8191 20.3086 22.3239 19.7923 22.6403 19.1572C23 18.4352 23 17.4902 23 15.6V8.4C23 6.50982 23 5.56473 22.6403 4.84278C22.3239 4.20773 21.8191 3.69143 21.1982 3.36785C20.4922 3 19.5682 3 17.72 3H6.28C4.43182 3 3.50774 3 2.80183 3.36785C2.18089 3.69143 1.67606 4.20773 1.35968 4.84278C1 5.56473 1 6.50982 1 8.4V15.6C1 17.4902 1 18.4352 1.35968 19.1572C1.67606 19.7923 2.18089 20.3086 2.80183 20.6321C3.50774 21 4.43182 21 6.28 21Z" stroke="currentColor" stroke-linecap="round" stroke-linejoin="round"></path>
</symbol>
<symbol viewBox="0 0 24 24" fill="none" id="error">
<path d="M10.2132 3.05263C11.0074 1.64912 12.9926 1.64912 13.7868 3.05263L22.7205 18.8421C23.5146 20.2456 22.522 22 20.9338 22H3.06624C1.47802 22 0.485378 20.2456 1.27949 18.8421L10.2132 3.05263Z" stroke="currentColor" stroke-linecap="round" stroke-linejoin="round"></path>
<path d="M12 7V15M12 18V18.01" stroke="currentColor" stroke-linecap="round"></path>
</symbol>
<symbol viewBox="0 0 24 24" fill="none" id="expand">
<path d="M13.4444 10.5556L22 2M22 2H14.6667M22 2V9.33333M10.5556 13.4444L2 22M2 22H9.33333M2 22V14.6667" stroke="currentColor" stroke-linecap="round" stroke-linejoin="round"></path>
</symbol>
<symbol viewBox="0 0 24 24" fill="none" id="eye-off">
<path d="M10.5948 4.3248C11.0491 4.25803 11.5175 4.22222 12 4.22222C17.7044 4.22222 21.4476 9.2276 22.7051 11.2076C22.8573 11.4472 22.9334 11.567 22.976 11.7519C23.0081 11.8907 23.0079 12.1097 22.976 12.2484C22.9333 12.4332 22.8568 12.5539 22.7035 12.7951C22.3683 13.3223 21.8576 14.0634 21.1808 14.8672M6.10442 6.12782C3.68849 7.75744 2.04835 10.0216 1.29596 11.2059C1.14306 11.4466 1.06662 11.5669 1.02401 11.7517C0.992008 11.8904 0.991997 12.1093 1.02398 12.2482C1.06657 12.433 1.14267 12.5528 1.29486 12.7924C2.55241 14.7724 6.2956 19.7778 12 19.7778C14.3001 19.7778 16.2813 18.964 17.9093 17.8629M1.94328 2L22.0567 22M9.62961 9.64298C9.02297 10.2462 8.64776 11.0796 8.64776 12C8.64776 13.841 10.1486 15.3333 12 15.3333C12.9256 15.3333 13.7637 14.9602 14.3703 14.357" stroke="currentColor" stroke-linecap="round" stroke-linejoin="round"></path>
</symbol>
<symbol viewBox="0 0 24 24" fill="none" id="eye">
<path d="M1.29534 12.8151C1.14317 12.5686 1.06708 12.4454 1.02448 12.2553C0.99249 12.1126 0.99249 11.8874 1.02448 11.7447C1.06708 11.5546 1.14317 11.4314 1.29534 11.1849C2.55289 9.14839 6.29609 4 12.0005 4C17.7049 4 21.4481 9.14839 22.7057 11.1849C22.8579 11.4314 22.9339 11.5546 22.9765 11.7447C23.0085 11.8874 23.0085 12.1126 22.9765 12.2553C22.9339 12.4454 22.8579 12.5686 22.7057 12.8151C21.4481 14.8517 17.7049 20 12.0005 20C6.29609 20 2.55289 14.8517 1.29534 12.8151Z" stroke="currentColor" stroke-linecap="round" stroke-linejoin="round"></path>
<path d="M12.0005 15C13.6574 15 15.0005 13.6569 15.0005 12C15.0005 10.3431 13.6574 9 12.0005 9C10.3436 9 9.00049 10.3431 9.00049 12C9.00049 13.6569 10.3436 15 12.0005 15Z" stroke="currentColor" stroke-linecap="round" stroke-linejoin="round"></path>
</symbol>
<symbol viewBox="0 0 9 16" fill="none" id="facebook-dark">
<path d="M6.19727 3.6053V5.86105H8.99927L8.55558 8.89969H6.19727V15.9006C5.72444 15.9659 5.24068 16 4.74964 16C4.18282 16 3.62621 15.955 3.08417 15.8679L3.08417 8.89969H0.5L0.5 5.86105H3.08417L3.08417 3.10103C3.08417 1.38872 4.47789 0 6.198 0V0.00145087C6.20309 0.00145087 6.20747 0 6.21257 0L9 0V2.62797H7.17862C6.63731 2.62797 6.198 3.06548 6.198 3.60457L6.19727 3.6053Z" fill="currentColor"></path>
</symbol>
<symbol viewBox="0 0 25 24" fill="none" id="facebook">
  <path d="M14.2959 5.40794V8.79158H18.4989L17.8334 13.3495H14.2959L14.2959 23.8509C13.5867 23.9488 12.861 24 12.1245 24C11.2742 24 10.4393 23.9325 9.62625 23.8019L9.62625 13.3495H5.75V8.79158H9.62625V4.65155C9.62625 2.08308 11.7168 0 14.297 0V0.00217631C14.3046 0.00217631 14.3112 0 14.3188 0L18.5 0V3.94196H15.7679C14.956 3.94196 14.297 4.59822 14.297 5.40686L14.2959 5.40794Z" fill="#1877F7"></path>
</symbol>
<symbol viewBox="0 0 24 24" fill="none" id="favorites">
<path d="M12.875 17.5L10.8221 15.7712C10.636 15.6145 10.364 15.6145 10.1779 15.7712L1.82207 22.8077C1.49688 23.0816 1 22.8504 1 22.4253V3.5C1 2.39543 1.89543 1.5 3 1.5H19C20.1046 1.5 21 2.39543 21 3.5V11.5" stroke="currentColor" stroke-linecap="round"></path>
<path d="M19.6999 21.9999V15.3333M16.3999 18.6666H22.9999" stroke="currentColor" stroke-linecap="round" stroke-linejoin="round"></path>
</symbol>
<symbol viewBox="0 0 24 24" fill="none" id="feed">
<rect x="2" y="2" width="20" height="6" rx="2" stroke="currentColor" stroke-linecap="round" stroke-linejoin="round"></rect>
<rect x="2" y="16" width="12" height="6" rx="2" stroke="currentColor" stroke-linecap="round" stroke-linejoin="round"></rect>
</symbol>
<symbol viewBox="0 0 24 24" fill="none" id="filters">
<ellipse cx="7" cy="18" rx="4" ry="4" transform="rotate(-90 7 18)" stroke="currentColor" stroke-linecap="round"></ellipse>
<ellipse cx="17" cy="6" rx="4" ry="4" transform="rotate(90 17 6)" stroke="currentColor" stroke-linecap="round"></ellipse>
<path d="M1 18L3 18" stroke="currentColor" stroke-linecap="round"></path>
<path d="M23 6H21" stroke="currentColor" stroke-linecap="round"></path>
<path d="M11 18L23 18" stroke="currentColor" stroke-linecap="round"></path>
<path d="M13 6L1 6" stroke="currentColor" stroke-linecap="round"></path>
</symbol>
<symbol viewBox="0 0 24 24" fill="none" id="flash">
<path d="M11 14H5L15 0L12 10H19L8 24L11 14Z" fill="currentColor"></path>
</symbol>
<symbol viewBox="0 0 24 24" fill="none" id="friends-update">
<path d="M16.4 3.52279C18.0299 4.34577 19.15 6.05469 19.15 8.02941C19.15 10.0041 18.0299 11.7131 16.4 12.536M1 22C3.14114 19.2311 6.0481 17.5294 9.25 17.5294C10.5601 17.5294 11.8209 17.8143 13 18.3407M14.2 8.02941C14.2 10.8071 11.9838 13.0588 9.25 13.0588C6.51619 13.0588 4.3 10.8071 4.3 8.02941C4.3 5.25175 6.51619 3 9.25 3C11.9838 3 14.2 5.25175 14.2 8.02941Z" stroke="currentColor" stroke-linecap="round" stroke-linejoin="round"></path>
</symbol>
<symbol viewBox="0 0 24 24" fill="none" id="friends">
<path d="M16.4 3.52279C18.0299 4.34577 19.15 6.05469 19.15 8.02941C19.15 10.0041 18.0299 11.7131 16.4 12.536M18.6 18.386C20.2627 19.1503 21.7597 20.3962 23 22M1 22C3.14114 19.2311 6.0481 17.5294 9.25 17.5294C12.4519 17.5294 15.3589 19.2311 17.5 22M14.2 8.02941C14.2 10.8071 11.9838 13.0588 9.25 13.0588C6.51619 13.0588 4.3 10.8071 4.3 8.02941C4.3 5.25175 6.51619 3 9.25 3C11.9838 3 14.2 5.25175 14.2 8.02941Z" stroke="currentColor" stroke-linecap="round" stroke-linejoin="round"></path>
</symbol>
<symbol viewBox="0 0 24 24" fill="none" id="gadgets">
<path d="M5.85 21H8.6M17.5 8.625H17.511M9.6 5.25H4.52C3.28789 5.25 2.67182 5.25 2.20122 5.49524C1.78726 5.71095 1.4507 6.05515 1.23979 6.47852C1 6.95982 1 7.58989 1 8.85V12.9C1 14.1601 1 14.7902 1.23979 15.2715C1.4507 15.6948 1.78726 16.0391 2.20122 16.2547C2.67182 16.5 3.28789 16.5 4.52 16.5H9.6M15.52 21H19.48C20.7121 21 21.3282 21 21.7988 20.7547C22.2127 20.5391 22.5493 20.1948 22.7602 19.7715C23 19.2902 23 18.6601 23 17.4V6.6C23 5.33989 23 4.70982 22.7602 4.22852C22.5493 3.80515 22.2127 3.46095 21.7988 3.24524C21.3282 3 20.7121 3 19.48 3H15.52C14.2879 3 13.6718 3 13.2012 3.24524C12.7873 3.46095 12.4507 3.80515 12.2398 4.22852C12 4.70982 12 5.33988 12 6.6V17.4C12 18.6601 12 19.2902 12.2398 19.7715C12.4507 20.1948 12.7873 20.5391 13.2012 20.7547C13.6718 21 14.2879 21 15.52 21ZM18.6 15.375C18.6 15.9963 18.1075 16.5 17.5 16.5C16.8925 16.5 16.4 15.9963 16.4 15.375C16.4 14.7537 16.8925 14.25 17.5 14.25C18.1075 14.25 18.6 14.7537 18.6 15.375Z" stroke="currentColor" stroke-linecap="round" stroke-linejoin="round"></path>
</symbol>
<symbol viewBox="0 0 24 24" fill="none" id="games">
<path d="M5.25452 10.8571H9.75152M7.50302 8.57143V13.1429M15.3728 12H15.384M18.7455 9.71429H18.7568M10.2562 4H13.7437C16.6948 4 18.1704 4 19.3285 4.56849C20.3481 5.06903 21.1954 5.87096 21.7592 6.86925C22.3996 8.00309 22.5047 9.49921 22.7149 12.4914L22.9915 16.428C23.1272 18.3582 21.6234 20 19.7197 20C18.7462 20 17.8231 19.5605 17.1999 18.8002L16.7781 18.2857C16.3924 17.8151 16.1993 17.5798 15.9798 17.3896C15.5193 16.9911 14.9619 16.7256 14.3659 16.6213C14.0816 16.5714 13.7803 16.5714 13.1776 16.5714H10.8225C10.2198 16.5714 9.91848 16.5714 9.63419 16.6213C9.03818 16.7256 8.48076 16.9911 8.0203 17.3896C7.80065 17.5798 7.60775 17.8151 7.22195 18.2857L6.80018 18.8002C6.17698 19.5605 5.25379 20 4.28031 20C2.37671 20 0.872876 18.3582 1.00851 16.428L1.28512 12.4914C1.49536 9.49921 1.60049 8.00309 2.24082 6.86925C2.80461 5.87096 3.65183 5.06903 4.67155 4.56849C5.82971 4 7.30523 4 10.2562 4Z" stroke="currentColor" stroke-linecap="round" stroke-linejoin="round"></path>
</symbol>
<symbol viewBox="0 0 24 24" fill="none" id="google">
  <g clip-path="url(#clip0_3940_9929)">
    <path d="M24.27 12.2729C24.27 11.422 24.1936 10.6038 24.0518 9.81836H12.75V14.4656H19.2082C18.9245 15.9602 18.0736 17.2256 16.7973 18.0765V21.0984H20.6918C22.9609 19.0038 24.27 15.9275 24.27 12.2729Z" fill="#4285F4"></path>
    <path d="M12.7498 24.0001C15.9898 24.0001 18.7062 22.931 20.6917 21.0983L16.7971 18.0765C15.728 18.7965 14.3644 19.2328 12.7498 19.2328C9.62984 19.2328 6.97893 17.1274 6.02984 14.291H2.03711V17.3892C4.01165 21.3056 8.05893 24.0001 12.7498 24.0001Z" fill="#34A853"></path>
    <path d="M6.03 14.2803C5.79 13.5603 5.64818 12.7966 5.64818 12.0003C5.64818 11.2039 5.79 10.4403 6.03 9.72025V6.62207H2.03727C1.21909 8.23662 0.75 10.0584 0.75 12.0003C0.75 13.9421 1.21909 15.7639 2.03727 17.3784L5.14636 14.9566L6.03 14.2803Z" fill="#FBBC05"></path>
    <path d="M12.7498 4.77818C14.5171 4.77818 16.088 5.38909 17.3426 6.56727L20.7789 3.13091C18.6953 1.18909 15.9898 0 12.7498 0C8.05893 0 4.01165 2.69455 2.03711 6.62182L6.02984 9.72C6.97893 6.88364 9.62984 4.77818 12.7498 4.77818Z" fill="#EA4335"></path>
  </g>
  <defs>
    <clipPath id="clip0_3940_9929">
      <rect width="24" height="24" fill="white"></rect>
    </clipPath>
  </defs>
</symbol>
<symbol viewBox="0 0 24 24" fill="none" id="image">
<path d="M16.9 22.5H6.0866C5.37981 22.5 5.02642 22.5 4.86278 22.3602C4.72079 22.239 4.64544 22.057 4.66009 21.8709C4.67697 21.6564 4.92686 21.4065 5.42664 20.9067L15.3467 10.9866C15.8087 10.5246 16.0398 10.2935 16.3062 10.2071C16.5404 10.1309 16.7929 10.1309 17.0272 10.2071C17.2935 10.2935 17.5246 10.5246 17.9866 10.9866L22.5 15.5V16.9M16.9 22.5C18.8602 22.5 19.8402 22.5 20.589 22.1185C21.2476 21.783 21.783 21.2476 22.1185 20.589C22.5 19.8402 22.5 18.8602 22.5 16.9M16.9 22.5H7.1C5.13981 22.5 4.15972 22.5 3.41103 22.1185C2.75246 21.783 2.21703 21.2476 1.88148 20.589C1.5 19.8402 1.5 18.8602 1.5 16.9V7.1C1.5 5.13981 1.5 4.15972 1.88148 3.41103C2.21703 2.75246 2.75246 2.21703 3.41103 1.88148C4.15972 1.5 5.13981 1.5 7.1 1.5H16.9C18.8602 1.5 19.8402 1.5 20.589 1.88148C21.2476 2.21703 21.783 2.75246 22.1185 3.41103C22.5 4.15972 22.5 5.13981 22.5 7.1V16.9M10.25 7.91667C10.25 9.20533 9.20533 10.25 7.91667 10.25C6.628 10.25 5.58333 9.20533 5.58333 7.91667C5.58333 6.628 6.628 5.58333 7.91667 5.58333C9.20533 5.58333 10.25 6.628 10.25 7.91667Z" stroke="currentColor" stroke-linecap="round" stroke-linejoin="round"></path>
</symbol>
<symbol viewBox="0 0 24 24" fill="none" id="interests">
<g clip-path="url(#clip0_636_3450)">
<path d="M3.75 23V17.5M3.75 6.5V1M1 3.75H6.5M1 20.25H6.5M13.1 2.1L11.1924 7.05975C10.8822 7.8663 10.7271 8.26958 10.4859 8.6088C10.2721 8.90944 10.0094 9.17211 9.7088 9.38588C9.36958 9.62709 8.9663 9.78219 8.15975 10.0924L3.2 12L8.15975 13.9076C8.9663 14.2178 9.36958 14.3729 9.7088 14.6142C10.0094 14.8279 10.2721 15.0906 10.4859 15.3912C10.7271 15.7304 10.8822 16.1337 11.1924 16.9402L13.1 21.9L15.0076 16.9402C15.3178 16.1337 15.4729 15.7304 15.7142 15.3912C15.9279 15.0906 16.1906 14.8279 16.4912 14.6142C16.8304 14.3729 17.2337 14.2178 18.0402 13.9076L23 12L18.0402 10.0924C17.2337 9.78219 16.8304 9.62708 16.4912 9.38588C16.1906 9.17211 15.9279 8.90944 15.7142 8.6088C15.4729 8.26958 15.3178 7.8663 15.0076 7.05975L13.1 2.1Z" stroke="currentColor" stroke-linecap="round" stroke-linejoin="round"></path>
</g>
<defs>
<clipPath id="clip0_636_3450">
<rect width="24" height="24" fill="white"></rect>
</clipPath>
</defs>
</symbol>
<symbol viewBox="0 0 24 24" fill="none" id="like">
<path d="M6.85396 2C5.34739 2 3.84088 2.59857 2.7041 3.80537C0.4305 6.2189 0.433432 10.0864 2.7041 12.5015L11.3827 21.7339C11.4617 21.818 11.5567 21.8849 11.662 21.9307C11.7672 21.9764 11.8805 22 11.9951 22C12.1096 22 12.2229 21.9764 12.3281 21.9307C12.4334 21.8849 12.5284 21.818 12.6074 21.7339C15.5025 18.6606 18.3997 15.5838 21.2948 12.5104C23.5684 10.0969 23.5684 6.22788 21.2948 3.8143C19.0213 1.40074 15.2687 1.40069 12.9951 3.8143L11.9995 4.85999L11.0039 3.80537C9.86705 2.59858 8.36054 2 6.85396 2Z" stroke="currentColor"></path>
</symbol>
<symbol viewBox="0 0 24 24" fill="none" id="liked">
<path d="M6.85396 2C5.34739 2 3.84088 2.59857 2.7041 3.80537C0.4305 6.2189 0.433432 10.0864 2.7041 12.5015L11.3827 21.7339C11.4617 21.818 11.5567 21.8849 11.662 21.9307C11.7672 21.9764 11.8805 22 11.9951 22C12.1096 22 12.2229 21.9764 12.3281 21.9307C12.4334 21.8849 12.5284 21.818 12.6074 21.7339C15.5025 18.6606 18.3997 15.5838 21.2948 12.5104C23.5684 10.0969 23.5684 6.22788 21.2948 3.8143C19.0213 1.40074 15.2687 1.40069 12.9951 3.8143L11.9995 4.85999L11.0039 3.80537C9.86705 2.59858 8.36054 2 6.85396 2Z" fill="#121212" stroke="currentColor"></path>
</symbol>
<symbol viewBox="0 0 24 24" fill="none" id="link-to">
<g clip-path="url(#clip0_115_1998)">
<path d="M9.7875 13.1074C10.2625 13.7431 10.8686 14.2691 11.5647 14.6499C12.2607 15.0306 13.0305 15.2569 13.8215 15.3136C14.6127 15.3703 15.4068 15.256 16.1498 14.9785C16.893 14.7011 17.5678 14.2668 18.1286 13.7054L21.4473 10.3833C22.4549 9.33901 23.0123 7.94041 22.9998 6.48868C22.9872 5.03696 22.4054 3.64825 21.3799 2.62168C20.3543 1.59512 18.9671 1.01282 17.5168 1.00021C16.0665 0.987586 14.6694 1.54567 13.6262 2.55424L11.7234 4.44783M14.2125 10.8927C13.7373 10.2568 13.1312 9.73083 12.4352 9.35018C11.7391 8.96951 10.9695 8.74314 10.1783 8.68643C9.38726 8.62971 8.59321 8.74397 7.85008 9.02146C7.10695 9.29895 6.43213 9.73318 5.8714 10.2947L2.55268 13.6168C1.54512 14.661 0.987598 16.0596 1.00021 17.5114C1.01281 18.9631 1.59452 20.3518 2.62005 21.3784C3.64558 22.4049 5.03288 22.9872 6.48314 22.9998C7.9334 23.0124 9.3306 22.4544 10.3738 21.4458L12.2655 19.5522" stroke="currentColor" stroke-linecap="round" stroke-linejoin="round"></path>
</g>
<defs>
<clipPath id="clip0_115_1998">
<rect width="24" height="24" fill="white"></rect>
</clipPath>
</defs>
</symbol>
<symbol viewBox="0 0 16 16" fill="none" id="linkedin">
<path d="M3.68359 15.7861H0.313477L0.313477 5.12012H3.68359L3.68359 15.7861ZM11.9531 4.97754C13.1829 4.97754 14.166 5.37636 14.8994 6.17383C15.6337 6.97119 15.9999 8.06574 16 9.45898V15.5977H12.7998V9.8916C12.7997 9.18904 12.6176 8.64259 12.2539 8.25391C11.8902 7.86533 11.3999 7.66992 10.7861 7.66992C10.1724 7.66994 9.68206 7.86431 9.31836 8.25391C8.95469 8.64259 8.77253 9.18904 8.77246 9.8916V15.5977H5.55371L5.55371 5.08984H8.77246V6.4834C9.0983 6.01909 9.53793 5.65287 10.0898 5.38281C10.6419 5.11268 11.2625 4.97754 11.9531 4.97754ZM2.00879 0C2.59974 0 3.06379 0.174567 3.4375 0.522461C3.812 0.870282 3.99801 1.30787 3.99805 1.83301C3.99805 2.35824 3.81107 2.77617 3.4375 3.12402C3.0628 3.47192 2.58679 3.64648 2.00879 3.64648C1.43103 3.64642 0.936136 3.47173 0.561523 3.12402C0.186821 2.77613 0 2.34538 0 1.83301C3.91746e-05 1.3207 0.187857 0.871315 0.561523 0.522461C0.936139 0.174729 1.41806 5.90679e-05 2.00879 0Z" fill="currentColor"></path>
</symbol>
<symbol viewBox="0 0 24 24" fill="none" id="location">
<g clip-path="url(#clip0_246_4484)">
<path d="M16.4 13.4664C20.285 14.2339 23 15.9868 23 18.0263C23 20.7732 18.0751 23 12 23C5.92486 23 1 20.7732 1 18.0263C1 15.9868 3.71501 14.2339 7.6 13.4664M12 16.4737V7.63158M12 7.63158C13.8226 7.63158 15.3 6.14704 15.3 4.31579C15.3 2.48453 13.8226 1 12 1C10.1774 1 8.7 2.48453 8.7 4.31579C8.7 6.14704 10.1774 7.63158 12 7.63158Z" stroke="currentColor" stroke-linecap="round" stroke-linejoin="round"></path>
</g>
<defs>
<clipPath id="clip0_246_4484">
<rect width="24" height="24" fill="white"></rect>
</clipPath>
</defs>
</symbol>
<symbol viewBox="0 0 24 24" fill="none" id="log-out">
<path d="M5.4 16.4444L1 12M1 12L5.4 7.55555M1 12L15.3 12M8.7 20.6622C10.1023 21.513 11.7303 22 13.4666 22C18.7318 22 23 17.5228 23 12C23 6.47711 18.7318 2 13.4666 2C11.7303 2 10.1023 2.487 8.7 3.33778" stroke="currentColor" stroke-linecap="round" stroke-linejoin="round"></path>
</symbol>
<symbol viewBox="0 0 24 24" fill="none" id="movies">
<g clip-path="url(#clip0_126_3293)">
<path d="M12 23C18.0751 23 23 18.0751 23 12C23 5.92487 18.0751 1 12 1C5.92487 1 1 5.92487 1 12C1 18.0751 5.92487 23 12 23ZM12 23H23" stroke="currentColor" stroke-linecap="round" stroke-linejoin="round"></path>
<circle cx="12" cy="6" r="3" stroke="currentColor" stroke-linecap="round" stroke-linejoin="round"></circle>
<circle cx="7" cy="15" r="3" stroke="currentColor" stroke-linecap="round" stroke-linejoin="round"></circle>
<circle cx="17" cy="15" r="3" stroke="currentColor" stroke-linecap="round" stroke-linejoin="round"></circle>
</g>
<defs>
<clipPath id="clip0_126_3293">
<rect width="24" height="24" fill="white"></rect>
</clipPath>
</defs>
</symbol>
<symbol viewBox="0 0 24 24" fill="none" id="music">
<g clip-path="url(#clip0_126_3284)">
<path d="M8.33333 19.3908V5.00232C8.33333 4.40731 8.33333 4.10981 8.4404 3.86851C8.53478 3.65583 8.68676 3.47446 8.87877 3.34537C9.0966 3.19893 9.38686 3.15002 9.96744 3.05221L20.723 1.23995C21.5063 1.10794 21.898 1.04195 22.2034 1.15658C22.4713 1.25717 22.6958 1.44948 22.8379 1.70008C23 1.98566 23 2.38713 23 3.19005V16.9195M8.33333 19.3908C8.33333 21.438 6.69171 23.0977 4.66667 23.0977C2.64163 23.0977 1 21.438 1 19.3908C1 17.3435 2.64163 15.6839 4.66667 15.6839C6.69171 15.6839 8.33333 17.3435 8.33333 19.3908ZM23 16.9195C23 18.9667 21.3584 20.6264 19.3333 20.6264C17.3082 20.6264 15.6667 18.9667 15.6667 16.9195C15.6667 14.8722 17.3082 13.2126 19.3333 13.2126C21.3584 13.2126 23 14.8722 23 16.9195Z" stroke="currentColor" stroke-linecap="round" stroke-linejoin="round"></path>
</g>
<defs>
<clipPath id="clip0_126_3284">
<rect width="24" height="24" fill="white"></rect>
</clipPath>
</defs>
</symbol>
<symbol viewBox="0 0 24 24" fill="none" id="news">
<path d="M10.8333 2.66666H7.1C5.13981 2.66666 4.15972 2.66666 3.41103 3.04814C2.75246 3.3837 2.21703 3.91913 1.88148 4.5777C1.5 5.32638 1.5 6.30648 1.5 8.26666V16.9C1.5 18.8602 1.5 19.8402 1.88148 20.589C2.21703 21.2476 2.75246 21.783 3.41103 22.1185C4.15972 22.5 5.13981 22.5 7.1 22.5H15.7333C17.6936 22.5 18.6736 22.5 19.4223 22.1185C20.0809 21.783 20.6163 21.2476 20.9518 20.589C21.3333 19.8402 21.3333 18.8602 21.3333 16.9V13.1667M13.1667 17.8333H6.16667M15.5 13.1667H6.16667M21.4748 2.52512C22.8417 3.89196 22.8417 6.10804 21.4748 7.47487C20.108 8.8417 17.892 8.8417 16.5251 7.47487C15.1583 6.10804 15.1583 3.89196 16.5251 2.52512C17.892 1.15829 20.108 1.15829 21.4748 2.52512Z" stroke="currentColor" stroke-linecap="round" stroke-linejoin="round"></path>
</symbol>
<symbol viewBox="0 0 24 24" fill="none" id="notifications">
<path d="M11.0343 2.19178H7.22057C5.21818 2.19178 4.21698 2.19178 3.45218 2.58147C2.77943 2.92425 2.23247 3.47121 1.88969 4.14396C1.5 4.90877 1.5 5.90996 1.5 7.91235V14.1096C1.5 15.218 1.5 15.7722 1.62182 16.2268C1.95243 17.4606 2.91616 18.4244 4.14998 18.755C4.60465 18.8768 5.15882 18.8768 6.26714 18.8768V21.6602C6.26714 22.2953 6.26714 22.6128 6.39732 22.7758C6.51053 22.9176 6.6822 23.0002 6.86368 23C7.07235 22.9998 7.32029 22.8014 7.81618 22.4047L10.6591 20.1303C11.2399 19.6657 11.5303 19.4335 11.8536 19.2683C12.1405 19.1217 12.4458 19.0145 12.7614 18.9498C13.1172 18.8768 13.489 18.8768 14.2327 18.8768H16.0398C18.0422 18.8768 19.0433 18.8768 19.8082 18.4871C20.481 18.1443 21.0279 17.5974 21.3706 16.9246C21.7604 16.1597 21.7604 15.1586 21.7604 13.1562V12.9179M21.9049 2.0472C23.3012 3.44346 23.3012 5.70725 21.9049 7.10351C20.5086 8.49977 18.2449 8.49977 16.8486 7.10351C15.4524 5.70725 15.4524 3.44346 16.8486 2.0472C18.2449 0.650935 20.5086 0.650935 21.9049 2.0472Z" stroke="currentColor" stroke-linecap="round" stroke-linejoin="round"></path>
</symbol>
<symbol viewBox="0 0 24 24" fill="none" id="password">
<path d="M23 10.75V7.6C23 6.33989 23 5.70982 22.7602 5.22852C22.5493 4.80515 22.2127 4.46095 21.7988 4.24524C21.3282 4 20.7121 4 19.48 4H4.52C3.28789 4 2.67182 4 2.20122 4.24524C1.78726 4.46095 1.4507 4.80515 1.23979 5.22852C1 5.70982 1 6.33989 1 7.6V11.65C1 12.9101 1 13.5402 1.23979 14.0215C1.4507 14.4448 1.78726 14.7891 2.20122 15.0047C2.67182 15.25 3.28789 15.25 4.52 15.25H10.9M12 9.625H12.0055M17.5 9.625H17.5055M6.5 9.625H6.5055M19.975 17.5V15.5312C19.975 14.4439 19.1132 13.5625 18.05 13.5625C16.9869 13.5625 16.125 14.4439 16.125 15.5312V17.5M12.275 9.625C12.275 9.78036 12.1519 9.90625 12 9.90625C11.8481 9.90625 11.725 9.78036 11.725 9.625C11.725 9.46967 11.8481 9.34375 12 9.34375C12.1519 9.34375 12.275 9.46967 12.275 9.625ZM17.775 9.625C17.775 9.78036 17.6519 9.90625 17.5 9.90625C17.3481 9.90625 17.225 9.78036 17.225 9.625C17.225 9.46967 17.3481 9.34375 17.5 9.34375C17.6519 9.34375 17.775 9.46967 17.775 9.625ZM6.775 9.625C6.775 9.78036 6.65188 9.90625 6.5 9.90625C6.34812 9.90625 6.225 9.78036 6.225 9.625C6.225 9.46967 6.34812 9.34375 6.5 9.34375C6.65188 9.34375 6.775 9.46967 6.775 9.625ZM15.96 22H20.14C20.7561 22 21.0641 22 21.2994 21.8774C21.5064 21.7695 21.6746 21.5975 21.7801 21.3858C21.9 21.1451 21.9 20.8301 21.9 20.2V19.3C21.9 18.6699 21.9 18.3549 21.7801 18.1142C21.6746 17.9025 21.5064 17.7305 21.2994 17.6226C21.0641 17.5 20.7561 17.5 20.14 17.5H15.96C15.3439 17.5 15.0359 17.5 14.8006 17.6226C14.5936 17.7305 14.4254 17.9025 14.3199 18.1142C14.2 18.3549 14.2 18.6699 14.2 19.3V20.2C14.2 20.8301 14.2 21.1451 14.3199 21.3858C14.4254 21.5975 14.5936 21.7695 14.8006 21.8774C15.0359 22 15.3439 22 15.96 22Z" stroke="currentColor" stroke-linecap="round" stroke-linejoin="round"></path>
</symbol>
<symbol viewBox="0 0 24 24" fill="none" id="photo">
<path d="M1 9.04851C1 8.66131 1 8.46771 1.01608 8.30465C1.17116 6.73193 2.4094 5.48777 3.97463 5.33195C4.13691 5.31579 4.34 5.31579 4.74614 5.31579C4.90264 5.31579 4.98089 5.31579 5.04733 5.31174C5.89567 5.26012 6.63855 4.72213 6.95555 3.92979C6.98038 3.86774 7.00359 3.79779 7.05 3.65789C7.09641 3.518 7.11962 3.44805 7.14445 3.386C7.46145 2.59366 8.20433 2.05567 9.05267 2.00405C9.11911 2 9.19249 2 9.33925 2H14.6608C14.8075 2 14.8809 2 14.9473 2.00405C15.7957 2.05567 16.5386 2.59366 16.8555 3.386C16.8804 3.44805 16.9036 3.518 16.95 3.65789C16.9964 3.79779 17.0196 3.86774 17.0445 3.92979C17.3614 4.72213 18.1043 5.26012 18.9527 5.31174C19.0191 5.31579 19.0973 5.31579 19.2538 5.31579C19.66 5.31579 19.8631 5.31579 20.0254 5.33195C21.5906 5.48777 22.8288 6.73193 22.9839 8.30465C23 8.46771 23 8.66131 23 9.04851V16.6947C23 18.5518 23 19.4802 22.6403 20.1896C22.3239 20.8135 21.8192 21.3207 21.1982 21.6386C20.4922 22 19.5682 22 17.72 22H6.28C4.43182 22 3.50774 22 2.80183 21.6386C2.18089 21.3207 1.67606 20.8135 1.35968 20.1896C1 19.4802 1 18.5518 1 16.6947V9.04851Z" stroke="currentColor" stroke-linecap="round" stroke-linejoin="round"></path>
<path d="M12 17.5C14.4852 17.5 16.5 15.4852 16.5 13C16.5 10.5148 14.4852 8.5 12 8.5C9.51472 8.5 7.5 10.5148 7.5 13C7.5 15.4852 9.51472 17.5 12 17.5Z" stroke="currentColor" stroke-linecap="round" stroke-linejoin="round"></path>
</symbol>
<symbol viewBox="0 0 24 24" fill="none" id="place">
<path d="M12 0.875C17.1593 0.875026 21.3417 5.05753 21.3418 10.2168C21.3418 12.8168 20.1628 15.134 18.4746 17.3262C16.7913 19.512 14.5473 21.6392 12.3535 23.833C12.1583 24.0283 11.8417 24.0283 11.6465 23.833C9.45266 21.6392 7.20875 19.512 5.52539 17.3262C3.83718 15.134 2.6582 12.8169 2.6582 10.2168C2.65826 5.05751 6.8407 0.875003 12 0.875ZM12 1.875C7.39299 1.875 3.65826 5.6098 3.6582 10.2168C3.6582 12.4999 4.69001 14.6037 6.31738 16.7168C7.86331 18.7241 9.89719 20.6811 12 22.7744C14.1028 20.6811 16.1367 18.7241 17.6826 16.7168C19.31 14.6037 20.3418 12.4999 20.3418 10.2168C20.3417 5.60981 16.607 1.87503 12 1.875ZM11.999 6.40137C14.1063 6.40137 15.8153 8.10958 15.8154 10.2168C15.8152 12.324 14.1063 14.0332 11.999 14.0332C9.89208 14.0328 8.18377 12.3238 8.18359 10.2168C8.18373 8.10982 9.89205 6.40176 11.999 6.40137ZM11.999 7.40137C10.4443 7.40176 9.18373 8.6621 9.18359 10.2168C9.18377 11.7715 10.4444 13.0328 11.999 13.0332C13.554 13.0332 14.8152 11.7717 14.8154 10.2168C14.8153 8.66185 13.554 7.40137 11.999 7.40137Z" fill="currentColor"></path>
</symbol>
<symbol viewBox="0 0 24 24" fill="none" id="profile">
<g clip-path="url(#clip0_1_7750)">
<path d="M19 8C19 11.866 15.866 15 12 15C8.13401 15 5 11.866 5 8C5 4.13401 8.13401 1 12 1C15.866 1 19 4.13401 19 8Z" stroke="currentColor" stroke-linecap="round" stroke-linejoin="round"></path>
<path d="M1 23.3235C3.85485 20.2267 7.7308 18.3235 12 18.3235C16.2692 18.3235 20.1451 20.2267 23 23.3235" stroke="currentColor" stroke-linecap="round" stroke-linejoin="round"></path>
</g>
<defs>
<clipPath id="clip0_1_7750">
<rect width="24" height="24" fill="white"></rect>
</clipPath>
</defs>
</symbol>
<symbol viewBox="0 0 24 24" fill="none" id="request">
<path d="M16.1797 19.2222L19.0002 22M16.1797 19.2222L19.0002 16.4445M16.1797 19.2222H23.0002" stroke="currentColor" stroke-linecap="round" stroke-linejoin="round"></path>
<path d="M1 22C3.2709 19.0854 6.35404 17.2941 9.75 17.2941C11.1395 17.2941 12.4767 17.594 13.7273 18.1481M15 7.29412C15 10.218 12.6495 12.5882 9.75 12.5882C6.85051 12.5882 4.5 10.218 4.5 7.29412C4.5 4.37026 6.85051 2 9.75 2C12.6495 2 15 4.37026 15 7.29412Z" stroke="currentColor" stroke-linecap="round" stroke-linejoin="round"></path>
</symbol>
<symbol viewBox="0 0 24 24" fill="none" id="scan">
<g clip-path="url(#clip0_1_7705)">
<path d="M7.10772 1H6.86341C4.81102 1 3.78483 1 3.00093 1.39964C2.31138 1.75118 1.75076 2.3121 1.39942 3.00204C1 3.78637 1 4.81314 1 6.86667V7.11111M7.10772 23H6.86341C4.81102 23 3.78483 23 3.00093 22.6003C2.31138 22.2488 1.75076 21.6879 1.39942 20.998C1 20.2136 1 19.1869 1 17.1333V16.8889M22.9878 7.11111V6.86667C22.9878 4.81314 22.9878 3.78637 22.5883 3.00204C22.237 2.3121 21.6765 1.75118 20.9869 1.39964C20.2029 1 19.1768 1 17.1244 1H16.8801M22.9878 16.8889V17.1333C22.9878 19.1869 22.9878 20.2136 22.5883 20.998C22.237 21.6879 21.6765 22.2488 20.9869 22.6003C20.2029 23 19.1768 23 17.1244 23H16.8801M1 12H1.01222M6.49695 12H6.50916M17.4908 12H17.5031M11.9939 12H12.0061M22.9878 12H23" stroke="currentColor" stroke-linecap="round" stroke-linejoin="round"></path>
</g>
<defs>
<clipPath id="clip0_1_7705">
<rect width="24" height="24" fill="white"></rect>
</clipPath>
</defs>
</symbol>
<symbol viewBox="0 0 24 24" fill="none" id="search">
<g clip-path="url(#clip0_1_7703)">
<path d="M23 23L17.3126 17.3126M10.5605 4.58519C13.8605 4.58519 16.5358 7.26043 16.5358 10.5605M20.121 10.5605C20.121 15.8406 15.8406 20.121 10.5605 20.121C5.28038 20.121 1 15.8406 1 10.5605C1 5.28038 5.28038 1 10.5605 1C15.8406 1 20.121 5.28038 20.121 10.5605Z" stroke="currentColor" stroke-linecap="round" stroke-linejoin="round"></path>
</g>
<defs>
<clipPath id="clip0_1_7703">
<rect width="24" height="24" fill="white"></rect>
</clipPath>
</defs>
</symbol>
<symbol viewBox="0 0 24 24" fill="none" id="services">
<g clip-path="url(#clip0_1_7762)">
<path d="M11.1248 2.00825C11.4059 1.43668 11.5466 1.1509 11.7374 1.05958C11.9035 0.980139 12.0965 0.980139 12.2625 1.05958C12.4535 1.1509 12.594 1.43668 12.8753 2.00825L15.5432 7.43084C15.6261 7.59958 15.6676 7.68395 15.7282 7.74947C15.782 7.80746 15.8465 7.85445 15.918 7.88784C15.9988 7.92554 16.0916 7.93915 16.2771 7.96636L22.2448 8.8415C22.8733 8.93365 23.1874 8.97972 23.3329 9.13372C23.4594 9.26769 23.5188 9.45181 23.4948 9.63477C23.4671 9.84508 23.2396 10.0674 22.7847 10.512L18.468 14.7301C18.3335 14.8616 18.2662 14.9274 18.2228 15.0057C18.1843 15.0748 18.1597 15.151 18.1502 15.2297C18.1394 15.3185 18.1553 15.4114 18.187 15.5971L19.2056 21.5552C19.313 22.1836 19.3667 22.4978 19.2658 22.6843C19.178 22.8465 19.0219 22.9603 18.841 22.994C18.633 23.0326 18.3517 22.8842 17.7893 22.5874L12.4543 19.7726C12.288 19.6849 12.205 19.6411 12.1174 19.6238C12.0399 19.6085 11.9601 19.6085 11.8826 19.6238C11.795 19.6411 11.7119 19.6849 11.5458 19.7726L6.21072 22.5874C5.64827 22.8842 5.36704 23.0326 5.15909 22.994C4.97817 22.9603 4.82205 22.8465 4.73423 22.6843C4.63328 22.4978 4.687 22.1836 4.79442 21.5552L5.81294 15.5971C5.84469 15.4114 5.86057 15.3185 5.84983 15.2297C5.84031 15.151 5.81565 15.0748 5.77722 15.0057C5.7338 14.9274 5.66652 14.8616 5.53196 14.7301L1.21537 10.512C0.760406 10.0674 0.532927 9.84508 0.505256 9.63477C0.481172 9.45181 0.540662 9.26769 0.667182 9.13372C0.8126 8.97972 1.1268 8.93365 1.75522 8.8415L7.72285 7.96636C7.90843 7.93915 8.00123 7.92554 8.08204 7.88784C8.15359 7.85445 8.21801 7.80746 8.27173 7.74947C8.33239 7.68395 8.37389 7.59958 8.45691 7.43084L11.1248 2.00825Z" stroke="currentColor" stroke-linecap="round" stroke-linejoin="round"></path>
</g>
<defs>
<clipPath id="clip0_1_7762">
<rect width="24" height="24" fill="white"></rect>
</clipPath>
</defs>
</symbol>
<symbol viewBox="0 0 24 24" fill="none" id="settings">
<g clip-path="url(#clip0_25_10094)">
<path d="M12 15C13.6569 15 15 13.6569 15 12C15 10.3431 13.6569 9 12 9C10.3431 9 9 10.3431 9 12C9 13.6569 10.3431 15 12 15Z" stroke="currentColor" stroke-linecap="round" stroke-linejoin="round"></path>
<path d="M19.4 15C19.2669 15.3016 19.2272 15.6362 19.286 15.9606C19.3448 16.2849 19.4995 16.5844 19.73 16.82L19.79 16.88C19.976 17.0657 20.1235 17.2863 20.2241 17.5292C20.3248 17.7719 20.3766 18.0322 20.3766 18.295C20.3766 18.5579 20.3248 18.8181 20.2241 19.0609C20.1235 19.3037 19.976 19.5242 19.79 19.71C19.6043 19.8959 19.3836 20.0434 19.1409 20.1441C18.8981 20.2447 18.6378 20.2965 18.3751 20.2965C18.1122 20.2965 17.8519 20.2447 17.6091 20.1441C17.3663 20.0434 17.1458 19.8959 16.96 19.71L16.9 19.65C16.6643 19.4195 16.365 19.2648 16.0406 19.206C15.7162 19.1471 15.3816 19.1868 15.08 19.3199C14.7842 19.4468 14.532 19.6572 14.3543 19.9255C14.1767 20.1938 14.0813 20.5082 14.08 20.83V21C14.08 21.5304 13.8693 22.0392 13.4942 22.4143C13.1191 22.7892 12.6104 23 12.08 23C11.5495 23 11.0409 22.7892 10.6658 22.4143C10.2907 22.0392 10.08 21.5304 10.08 21V20.91C10.0723 20.579 9.96511 20.258 9.77251 19.9888C9.5799 19.7194 9.31073 19.5143 9 19.4C8.69838 19.2669 8.36381 19.2272 8.03942 19.286C7.71502 19.3448 7.41568 19.4995 7.18 19.73L7.12 19.79C6.93426 19.976 6.71367 20.1235 6.47088 20.2241C6.22808 20.3248 5.96783 20.3766 5.705 20.3766C5.44217 20.3766 5.18191 20.3248 4.93912 20.2241C4.69632 20.1235 4.47575 19.976 4.29 19.79C4.10405 19.6043 3.95653 19.3836 3.85589 19.1409C3.75524 18.8981 3.70343 18.6378 3.70343 18.3751C3.70343 18.1122 3.75524 17.8519 3.85589 17.6091C3.95653 17.3663 4.10405 17.1458 4.29 16.96L4.35 16.9C4.58053 16.6643 4.73518 16.365 4.79401 16.0406C4.85283 15.7162 4.81312 15.3816 4.67999 15.08C4.55324 14.7842 4.34276 14.532 4.07447 14.3543C3.80618 14.1767 3.49179 14.0813 3.17 14.08H3C2.46957 14.08 1.96086 13.8693 1.58578 13.4942C1.21072 13.1191 1 12.6104 1 12.08C1 11.5495 1.21072 11.0409 1.58578 10.6658C1.96086 10.2907 2.46957 10.08 3 10.08H3.09C3.42099 10.0723 3.742 9.96511 4.01129 9.77251C4.2806 9.5799 4.48571 9.31073 4.6 9C4.73311 8.69838 4.77282 8.36381 4.71401 8.03942C4.65519 7.71502 4.50054 7.41568 4.27 7.18L4.21 7.12C4.02404 6.93426 3.87653 6.71367 3.77588 6.47088C3.67523 6.22808 3.62342 5.96783 3.62342 5.705C3.62342 5.44217 3.67523 5.18191 3.77588 4.93912C3.87653 4.69632 4.02404 4.47575 4.21 4.29C4.39574 4.10405 4.61633 3.95653 4.85912 3.85589C5.10191 3.75524 5.36217 3.70343 5.625 3.70343C5.88783 3.70343 6.14809 3.75524 6.39088 3.85589C6.63367 3.95653 6.85426 4.10405 7.04 4.29L7.1 4.35C7.33568 4.58053 7.63501 4.73518 7.95941 4.79401C8.2838 4.85283 8.61838 4.81312 8.92 4.67999H9C9.29577 4.55324 9.54802 4.34276 9.7257 4.07447C9.9034 3.80618 9.99877 3.49179 9.99998 3.17V3C9.99998 2.46957 10.2107 1.96086 10.5858 1.58578C10.9608 1.21072 11.4696 1 12 1C12.5304 1 13.0392 1.21072 13.4142 1.58578C13.7893 1.96086 14 2.46957 14 3V3.09C14.0012 3.41178 14.0966 3.72617 14.2744 3.99446C14.452 4.26275 14.7042 4.47324 15 4.6C15.3016 4.73311 15.6362 4.77282 15.9606 4.71401C16.2849 4.65519 16.5844 4.50054 16.82 4.27L16.88 4.21C17.0657 4.02404 17.2863 3.87653 17.5292 3.77588C17.7719 3.67523 18.0322 3.62342 18.295 3.62342C18.5579 3.62342 18.8181 3.67523 19.0609 3.77588C19.3037 3.87653 19.5242 4.02404 19.71 4.21C19.8959 4.39574 20.0434 4.61633 20.1441 4.85912C20.2447 5.10191 20.2965 5.36217 20.2965 5.625C20.2965 5.88783 20.2447 6.14809 20.1441 6.39088C20.0434 6.63367 19.8959 6.85426 19.71 7.04L19.65 7.1C19.4195 7.33568 19.2648 7.63501 19.206 7.95941C19.1471 8.2838 19.1868 8.61838 19.3199 8.92V9C19.4468 9.29577 19.6572 9.54802 19.9255 9.7257C20.1938 9.9034 20.5082 9.99877 20.83 9.99998H21C21.5304 9.99998 22.0392 10.2107 22.4143 10.5858C22.7892 10.9608 23 11.4696 23 12C23 12.5304 22.7892 13.0392 22.4143 13.4142C22.0392 13.7893 21.5304 14 21 14H20.91C20.5883 14.0012 20.2739 14.0966 20.0056 14.2744C19.7373 14.452 19.5268 14.7042 19.4 15Z" stroke="currentColor" stroke-linecap="round" stroke-linejoin="round"></path>
</g>
<defs>
<clipPath id="clip0_25_10094">
<rect width="24" height="24" fill="white"></rect>
</clipPath>
</defs>
</symbol>
<symbol viewBox="0 0 24 24" fill="none" id="share">
<path d="M23 2H1.3175C0.857448 2 0.641555 2.56888 0.985776 2.87411L9.65529 10.5615M23 2L12.6057 21.7213C12.3843 22.1414 11.757 22.0453 11.6715 21.5782L9.65529 10.5615M23 2L9.65529 10.5615" stroke="currentColor" stroke-linecap="round"></path>
</symbol>
<symbol viewBox="0 0 24 24" fill="none" id="sort">
<path d="M5.66667 12H18.3333M2 6H22M9.33333 18H14.6667" stroke="currentColor" stroke-linecap="round" stroke-linejoin="round"></path>
</symbol>
<symbol viewBox="0 0 24 24" fill="none" id="technology">
<g clip-path="url(#clip0_126_3309)">
<path d="M8.7 1V4.3M15.3 1V4.3M8.7 19.7V23M15.3 19.7V23M19.7 8.7H23M19.7 14.2H23M1 8.7H4.3M1 14.2H4.3M9.58 19.7H14.42C16.2682 19.7 17.1922 19.7 17.8982 19.3403C18.5191 19.0239 19.0239 18.5191 19.3403 17.8982C19.7 17.1922 19.7 16.2682 19.7 14.42V9.58C19.7 7.73182 19.7 6.80774 19.3403 6.10183C19.0239 5.48089 18.5191 4.97606 17.8982 4.65968C17.1922 4.3 16.2682 4.3 14.42 4.3H9.58C7.73182 4.3 6.80774 4.3 6.10183 4.65968C5.48089 4.97606 4.97606 5.48089 4.65968 6.10183C4.3 6.80774 4.3 7.73182 4.3 9.58V14.42C4.3 16.2682 4.3 17.1922 4.65968 17.8982C4.97606 18.5191 5.48089 19.0239 6.10183 19.3403C6.80774 19.7 7.73182 19.7 9.58 19.7Z" stroke="currentColor" stroke-linecap="round" stroke-linejoin="round"></path>
</g>
<defs>
<clipPath id="clip0_126_3309">
<rect width="24" height="24" fill="white"></rect>
</clipPath>
</defs>
</symbol>
<symbol viewBox="0 0 16 16" fill="none" id="telegram">
<path d="M0.420356 7.65389C0.457099 7.63516 0.49386 7.61737 0.529685 7.60051C1.15249 7.30643 1.78356 7.03108 2.41372 6.75573C2.44771 6.75573 2.50465 6.71546 2.5368 6.70235C2.58548 6.68081 2.63418 6.6602 2.68286 6.63866L2.96304 6.51597C3.15043 6.43449 3.33689 6.35301 3.52428 6.27153C3.89815 6.10857 4.27201 5.94561 4.64588 5.78171C5.39362 5.45579 6.14228 5.12893 6.89002 4.80301C7.63775 4.47708 8.3864 4.15022 9.13413 3.8243C9.88187 3.49838 10.6305 3.17152 11.3782 2.8456C12.126 2.51967 12.8747 2.19281 13.6224 1.86689C13.7887 1.79384 13.9687 1.6852 14.1469 1.65336C14.2966 1.6262 14.4427 1.57375 14.5933 1.54472C14.879 1.48946 15.1941 1.46698 15.4678 1.5878C15.5624 1.62994 15.6497 1.68895 15.7223 1.76293C16.0695 2.11321 16.0208 2.68825 15.9473 3.18088C15.4357 6.61431 14.924 10.0487 14.4114 13.4821C14.3416 13.9532 14.2461 14.4702 13.8814 14.768C13.5728 15.0199 13.1337 15.048 12.7525 14.9413C12.3712 14.8336 12.035 14.6078 11.7053 14.3859C10.3375 13.4624 8.96879 12.539 7.60101 11.6155C7.27583 11.3964 6.91391 11.1098 6.91758 10.7118C6.91942 10.472 7.05995 10.2585 7.20325 10.0683C8.39191 8.48743 10.1069 7.40102 11.3828 5.89316C11.5629 5.68056 11.7044 5.29657 11.4573 5.17388C11.3103 5.10083 11.1412 5.20011 11.0071 5.2947C9.3206 6.48881 7.635 7.68386 5.94846 8.87797C5.39822 9.26758 4.82135 9.66843 4.15813 9.76396C3.56471 9.85012 2.96763 9.68154 2.39351 9.50922C1.91217 9.36499 1.43173 9.21701 0.953144 9.06435C0.698694 8.98381 0.435974 8.89671 0.239396 8.71408C0.0428169 8.53145 -0.0701547 8.22426 0.0483437 7.98075C0.12275 7.82809 0.266971 7.73163 0.418539 7.65296L0.420356 7.65389Z" fill="currentColor"></path>
</symbol>
<symbol viewBox="0 0 24 24" fill="none" id="tools">
<g clip-path="url(#clip0_1_7764)">
<path d="M6.5 15.3L9.8 12L6.5 8.7M13.1 15.3H17.5M23 12C23 18.0751 18.0751 23 12 23C5.92487 23 1 18.0751 1 12C1 5.92487 5.92487 1 12 1C18.0751 1 23 5.92487 23 12Z" stroke="currentColor" stroke-linecap="round" stroke-linejoin="round"></path>
</g>
<defs>
<clipPath id="clip0_1_7764">
<rect width="24" height="24" fill="white"></rect>
</clipPath>
</defs>
</symbol>
<symbol viewBox="0 0 24 24" fill="none" id="trash">
<g clip-path="url(#clip0_722_5961)">
<path d="M8.33333 1H15.6667M1 4.66667H23M20.5556 4.66667L19.6984 17.5236C19.5698 19.4525 19.5055 20.4171 19.0889 21.1483C18.7221 21.7922 18.1688 22.3098 17.5021 22.633C16.7447 23 15.778 23 13.8447 23H10.1553C8.222 23 7.25537 23 6.49797 22.633C5.83115 22.3098 5.27789 21.7922 4.91109 21.1483C4.49447 20.4171 4.43017 19.4525 4.30158 17.5236L3.44444 4.66667M9.55556 10.1667V16.2778M14.4444 10.1667V16.2778" stroke="currentColor" stroke-linecap="round" stroke-linejoin="round"></path>
</g>
<defs>
<clipPath id="clip0_722_5961">
<rect width="24" height="24" fill="white"></rect>
</clipPath>
</defs>
</symbol>
<symbol viewBox="0 0 24 24" fill="none" id="turn">
<path d="M21.8784 14.867C20.9629 17.8235 18.6523 20.3297 15.4187 21.4316C10.0461 23.2625 4.16002 20.5241 2.27165 15.3152L2.07052 14.7605M2.121 9.13303C3.03645 6.17647 5.34703 3.67033 8.58071 2.56836C13.9532 0.737515 19.8393 3.47592 21.7277 8.68478L21.9288 9.23958M0.5 17.1658L1.98439 14.1665L5.0778 15.6058M18.9222 8.39447L22.0156 9.83362L23.5 6.83445" stroke="currentColor" stroke-linecap="round" stroke-linejoin="round"></path>
</symbol>
<symbol viewBox="0 0 24 24" fill="none" id="unfollow">
<path d="M17.3589 16.4445L22.9999 22M22.9999 16.4445L17.3589 22" stroke="currentColor" stroke-linecap="round" stroke-linejoin="round"></path>
<path d="M1 22C3.2709 19.0854 6.35404 17.2941 9.75 17.2941C11.1395 17.2941 12.4767 17.594 13.7273 18.1481M15 7.29412C15 10.218 12.6495 12.5882 9.75 12.5882C6.85051 12.5882 4.5 10.218 4.5 7.29412C4.5 4.37026 6.85051 2 9.75 2C12.6495 2 15 4.37026 15 7.29412Z" stroke="currentColor" stroke-linecap="round" stroke-linejoin="round"></path>
</symbol>
<symbol viewBox="0 0 16 16" fill="none" id="whatsapp">
<g clip-path="url(#clip0_4448_6157)">
<path d="M8.26318 0.5C10.2071 0.500037 12.0658 1.22716 13.4985 2.5459C14.9225 3.85681 15.8006 5.63388 15.9702 7.5498H15.9692C15.9899 7.77523 16.0005 8.00793 16.0005 8.24023V8.28223C15.9797 11.9328 13.3711 15.1049 9.79834 15.8271C9.55919 15.8753 9.31558 15.9127 9.07471 15.9385C8.80107 15.9669 8.5281 15.9814 8.26221 15.9814C7.25108 15.9814 6.26787 15.7887 5.33936 15.4082L0.000488281 15.9766L1.66748 12.2842C0.919678 11.0687 0.524902 9.67263 0.524902 8.24023C0.525092 3.97246 3.99678 0.5 8.26318 0.5ZM8.26318 2.0625C4.85727 2.0625 2.08655 4.8342 2.08643 8.24121C2.08643 9.54793 2.49047 10.7985 3.25635 11.8564C3.27091 11.8762 3.2845 11.893 3.29736 11.9102L3.47314 12.1465L2.59131 14.1016L5.54541 13.7871L5.54639 13.7881L5.65771 13.8428C5.73424 13.8798 5.8165 13.9157 5.8999 13.9492C6.65115 14.2626 7.44677 14.4209 8.26514 14.4209C8.49477 14.4209 8.72633 14.4086 8.95166 14.3828C9.16835 14.3596 9.38575 14.3227 9.59814 14.2754C12.3828 13.659 14.3736 11.2388 14.439 8.38867C14.4398 8.33788 14.4409 8.29039 14.4409 8.24219C14.4409 8.07351 14.4332 7.90185 14.4194 7.73145C14.1585 4.55268 11.4538 2.06258 8.26318 2.0625ZM6.13818 4.68555C6.21989 4.68555 6.30101 4.6923 6.37842 4.70605C6.5488 4.73446 6.71099 4.79294 6.85986 4.87988C6.88116 4.89281 6.8955 4.91355 6.89893 4.9375L7.23096 7.03125C7.23526 7.0562 7.22776 7.08056 7.21143 7.09863C7.02819 7.30172 6.79433 7.44829 6.53369 7.52148L6.40771 7.55664L6.45459 7.67773C6.88313 8.76925 7.75613 9.64186 8.84814 10.0723L8.96924 10.1201L9.00439 9.99414C9.07754 9.73348 9.22431 9.49968 9.42725 9.31641C9.44188 9.30263 9.46214 9.2959 9.48193 9.2959C9.48611 9.2959 9.49059 9.29604 9.49561 9.29688L11.5894 9.62891C11.6141 9.63328 11.6351 9.64658 11.6479 9.66797C11.734 9.81689 11.7915 9.97995 11.8208 10.1504C11.8346 10.2261 11.8403 10.3062 11.8403 10.3896C11.8403 11.1859 11.1919 11.8341 10.395 11.835C7.25169 11.8347 4.69471 9.27528 4.69385 6.13086C4.69488 5.33396 5.34325 4.68566 6.13818 4.68555Z" fill="currentColor"></path>
</g>
<defs>
<clipPath id="clip0_4448_6157">
<rect width="16" height="16" fill="white"></rect>
</clipPath>
</defs>
</symbol>
<symbol viewBox="0 0 16 16" fill="none" id="youtube">
<g clip-path="url(#clip0_4448_3454)">
<path d="M12.6411 2.5C13.3799 2.5 14.1731 2.515 14.7759 2.94238C15.5541 3.4936 15.7654 4.54246 15.8628 5.49121C16.0427 7.23865 16.0451 9.00451 15.8696 10.752C15.7968 11.4724 15.6762 12.2345 15.2017 12.7812C14.7313 13.3237 14.0331 13.5324 13.3013 13.6123L13.3003 13.6133C12.9285 13.6536 12.5479 13.661 12.1831 13.6602C9.33564 13.6575 6.48771 13.6551 3.64111 13.6533C2.74521 13.6533 1.76899 13.6243 1.07666 13.0547C0.296722 12.4113 0.134952 11.2954 0.0717773 10.2861C-0.0159709 8.90287 -0.0236144 7.515 0.0483398 6.13086C0.0878289 5.37083 0.157588 4.59236 0.484863 3.9043C0.719993 3.41025 1.11198 2.96592 1.61377 2.73242C2.1973 2.46121 2.80873 2.50967 3.43701 2.50879C4.94092 2.50703 6.44483 2.50566 7.94873 2.50391C9.51243 2.50215 11.0774 2.50176 12.6411 2.5ZM6.30225 10.5332L10.5464 8.08203L6.30225 5.63184V10.5332Z" fill="currentColor"></path>
</g>
<defs>
<clipPath id="clip0_4448_3454">
<rect width="16" height="16" fill="white"></rect>
</clipPath>
</defs>
</symbol>
</defs>
</svg>
