<svg xmlns="http://www.w3.org/2000/svg" width="128" height="34" viewBox="0 0 128 34" fill="none">
  <path fill-rule="evenodd" clip-rule="evenodd" d="M26.7861 11.5625C28.333 11.5625 29.6742 11.8811 30.8086 12.5186C31.9429 13.1467 32.8197 14.0373 33.4385 15.1904C34.0572 16.3342 34.3662 17.6797 34.3662 19.2266V20.6895H24.0762C24.0932 21.3393 24.208 21.9021 24.4238 22.377C24.6676 22.8924 25.0097 23.2911 25.4502 23.5723C25.9002 23.8441 26.435 23.9795 27.0537 23.9795C27.5881 23.9795 28.043 23.8953 28.418 23.7266C28.7929 23.5578 29.0881 23.3511 29.3037 23.1074C29.5286 22.8638 29.6789 22.6345 29.7539 22.4189L29.7676 22.3623H34.2676L34.2256 22.5312C34.1131 23.0656 33.8979 23.6238 33.5791 24.2051C33.2604 24.7769 32.815 25.3161 32.2432 25.8223C31.6807 26.3285 30.9627 26.7408 30.0908 27.0596C29.2284 27.3688 28.183 27.5234 26.9551 27.5234C25.3428 27.5234 23.9554 27.2048 22.793 26.5674C21.6305 25.9205 20.7346 25.0012 20.1064 23.8105C19.4879 22.62 19.1787 21.1996 19.1787 19.5498V19.5361C19.1787 17.8956 19.4878 16.4797 20.1064 15.2891C20.7346 14.0984 21.6166 13.1801 22.751 12.5332C23.8946 11.8864 25.2395 11.5626 26.7861 11.5625ZM26.8994 15.1064C26.3369 15.1064 25.8394 15.2418 25.4082 15.5137C24.9864 15.7855 24.6582 16.1841 24.4238 16.709C24.2854 17.0136 24.1895 17.3565 24.1328 17.7363H29.6533C29.5969 17.3495 29.4999 17.0023 29.3604 16.6953C29.126 16.1704 28.7978 15.7762 28.376 15.5137C27.9542 15.2419 27.4618 15.1065 26.8994 15.1064Z" fill="#121212"/>
  <path fill-rule="evenodd" clip-rule="evenodd" d="M56.7832 11.5625C58.3768 11.5625 59.7598 11.8812 60.9316 12.5186C62.1035 13.1467 63.0133 14.0564 63.6602 15.2471C64.3069 16.4282 64.6308 17.853 64.6309 19.5215V19.5498C64.6309 21.2373 64.3113 22.6766 63.6738 23.8672C63.0363 25.0578 62.1318 25.9676 60.96 26.5957C59.7975 27.2144 58.405 27.5234 56.7832 27.5234C55.171 27.5234 53.7792 27.209 52.6074 26.5811C51.4356 25.953 50.5301 25.0441 49.8926 23.8535C49.2645 22.6629 48.9512 21.2279 48.9512 19.5498V19.5215C48.9512 17.8717 49.2741 16.4513 49.9209 15.2607C50.5678 14.0608 51.4776 13.1467 52.6494 12.5186C53.8212 11.8812 55.1991 11.5625 56.7832 11.5625ZM56.7832 15.3457C56.2302 15.3458 55.7431 15.5098 55.3213 15.8379C54.9089 16.166 54.5849 16.6435 54.3506 17.2715C54.1256 17.8901 54.0137 18.6404 54.0137 19.5215V19.5498C54.0137 20.4404 54.1256 21.2 54.3506 21.8281C54.5756 22.4562 54.8942 22.9346 55.3066 23.2627C55.7285 23.5814 56.226 23.7402 56.7979 23.7402C57.3696 23.7402 57.862 23.5814 58.2744 23.2627C58.6869 22.9346 59.0012 22.4562 59.2168 21.8281C59.4418 21.2 59.5537 20.4404 59.5537 19.5498V19.5215C59.5537 18.6404 59.4365 17.8901 59.2021 17.2715C58.9772 16.6437 58.6584 16.1659 58.2461 15.8379C57.8336 15.5098 57.3457 15.3457 56.7832 15.3457Z" fill="#121212"/>
  <path d="M70.6289 20.6748C70.6289 21.5467 70.8355 22.2316 71.248 22.7285C71.6605 23.2158 72.2744 23.459 73.0898 23.459C73.4835 23.459 73.8395 23.3886 74.1582 23.248C74.477 23.1074 74.7496 22.9113 74.9746 22.6582C75.1995 22.4052 75.368 22.1003 75.4805 21.7441C75.6023 21.3879 75.6631 20.998 75.6631 20.5762V11.8857H80.6553V27.2002H75.6631V24.5H75.5645C75.302 25.1374 74.9556 25.6862 74.5244 26.1455C74.0932 26.5955 73.5775 26.9375 72.9775 27.1719C72.3775 27.4062 71.6883 27.5234 70.9102 27.5234C69.7945 27.5234 68.8432 27.2934 68.0557 26.834C67.2682 26.3746 66.6684 25.714 66.2559 24.8516C65.8434 23.9891 65.6368 22.9534 65.6367 21.7441V11.8857H70.6289V20.6748Z" fill="#121212"/>
  <path d="M88.4541 11.8857H91.1963V15.542H88.4541V22.0527C88.4541 22.709 88.6043 23.1777 88.9043 23.459C89.2043 23.7308 89.6539 23.8672 90.2539 23.8672C90.4602 23.8672 90.6338 23.8629 90.7744 23.8535C90.915 23.8348 91.0557 23.8156 91.1963 23.7969V27.3408C90.9245 27.3877 90.5962 27.4293 90.2119 27.4668C89.8275 27.5043 89.3727 27.5234 88.8477 27.5234C87.001 27.5234 85.6371 27.1578 84.7559 26.4268C83.8841 25.6862 83.4473 24.4533 83.4473 22.7285V15.542H81.3662V11.8857H83.4473V8.35645H88.4541V11.8857Z" fill="#121212"/>
  <path d="M99.5576 11.5625C101.001 11.5625 102.262 11.83 103.34 12.3643C104.418 12.8892 105.257 13.6202 105.857 14.5576C106.457 15.4951 106.772 16.5733 106.8 17.792V17.8906H102.215L102.201 17.75C102.107 17.0469 101.84 16.4705 101.399 16.0205C100.959 15.5705 100.373 15.3457 99.6416 15.3457C99.0698 15.3457 98.5732 15.5098 98.1514 15.8379C97.7389 16.166 97.4193 16.6435 97.1943 17.2715C96.9787 17.8902 96.8711 18.6455 96.8711 19.5361V19.5498C96.8711 20.4404 96.9787 21.2 97.1943 21.8281C97.4193 22.4562 97.7389 22.9346 98.1514 23.2627C98.5731 23.5812 99.0744 23.7402 99.6553 23.7402C100.387 23.7402 100.968 23.525 101.399 23.0938C101.84 22.6531 102.107 22.0672 102.201 21.3359L102.229 21.1953H106.813L106.8 21.2793C106.772 22.4699 106.462 23.5342 105.871 24.4717C105.29 25.4092 104.465 26.1549 103.396 26.708C102.337 27.2517 101.071 27.5234 99.5996 27.5234C97.9965 27.5234 96.6084 27.2049 95.4365 26.5674C94.2741 25.9205 93.3791 25.0011 92.751 23.8105C92.123 22.6106 91.8086 21.1807 91.8086 19.5215V19.5078C91.8086 17.8672 92.1228 16.4514 92.751 15.2607C93.3884 14.0703 94.2836 13.156 95.4365 12.5186C96.599 11.8811 97.9732 11.5625 99.5576 11.5625Z" fill="#121212"/>
  <path fill-rule="evenodd" clip-rule="evenodd" d="M10.79 6.9082C12.4303 6.90826 13.8222 7.17044 14.9658 7.69531C16.1096 8.22031 16.982 8.9842 17.582 9.9873C18.182 10.9904 18.4814 12.2093 18.4814 13.6436V13.6719C18.4814 14.9749 18.1681 16.1469 17.54 17.1875C16.912 18.228 16.0724 18.9824 15.0225 19.4512L19.0723 27.2002H13.2646L9.79102 20.2109H7.16113V27.2002H2V6.9082H10.79ZM7.16113 16.4707H10.2129C11.1316 16.4707 11.8582 16.2172 12.3926 15.7109C12.9363 15.1954 13.2079 14.5112 13.208 13.6582V13.6299C13.208 12.7768 12.932 12.0918 12.3789 11.5762C11.8258 11.0606 11.0939 10.8027 10.1846 10.8027H7.16113V16.4707Z" fill="#121212"/>
  <path d="M41.6729 23.0234H41.7705L44.3867 11.8857H49.6035L44.541 27.2002H38.7617L33.6426 11.8857H39.001L41.6729 23.0234Z" fill="#121212"/>
  <path d="M112.854 14.6426H112.953C113.347 13.6395 113.933 12.8746 114.711 12.3496C115.498 11.8249 116.468 11.5626 117.621 11.5625C118.737 11.5625 119.689 11.8012 120.477 12.2793C121.273 12.748 121.878 13.4235 122.29 14.3047C122.712 15.1766 122.923 16.2313 122.923 17.4688V27.2002H117.931V18.5371C117.931 17.6281 117.715 16.9159 117.284 16.4004C116.862 15.8849 116.239 15.627 115.414 15.627C114.898 15.627 114.448 15.7528 114.063 16.0059C113.679 16.2495 113.38 16.5875 113.164 17.0186C112.958 17.4498 112.854 17.9516 112.854 18.5234V27.2002H107.862V6.9082H112.854V14.6426Z" fill="#121212"/>
  <path d="M125.418 8.39746L118.668 4.5L125.418 0.602539V8.39746Z" fill="#121212"/>
</svg>